<?xml version="1.0" encoding="utf-8"?>
<!-- Generator: Adobe Illustrator 27.4.1, SVG Export Plug-In . SVG Version: 6.00 Build 0)  -->
<svg version="1.1" id="Layer_1" xmlns="http://www.w3.org/2000/svg" xmlns:xlink="http://www.w3.org/1999/xlink" x="0px" y="0px"
	 viewBox="0 0 23.6 27" style="enable-background:new 0 0 23.6 27;" xml:space="preserve">
<style type="text/css">
	.st0{fill:#004A73;}
</style>
<g>
	<g>
		<path class="st0" d="M16.4,9.6c-0.2-0.8-0.5-1.6-1.2-2.1c-2.1,1.2-4.8,1.2-6.9,0C7.7,8,7.3,8.8,7.2,9.6H6.7
			c-0.6,0-1.2,0.5-1.2,1.2C5.5,11.5,6,12,6.7,12h0.7v0.7c0,2.5,2,4.5,4.5,4.5s4.5-2,4.5-4.5V12H17c0.6,0,1.2-0.5,1.2-1.2
			c0-0.6-0.5-1.2-1.2-1.2H16.4z"/>
		<path class="st0" d="M6.1,8.4c0.4-1,1.2-1.9,2.2-2.4c2.2,1.6,4.8,1.5,6.9,0c1,0.5,1.8,1.4,2.2,2.4c0.2,0,0.3,0.1,0.5,0.1
			c0.8-3.2-1.5-6.3-4.7-6.4h-2.8c-3.3,0-5.5,3.2-4.7,6.4C5.8,8.4,6,8.4,6.1,8.4L6.1,8.4z"/>
	</g>
	<path class="st0" d="M21.1,22.9c-0.4-1.2-1.4-2.2-2.6-2.5l-2.1-0.6c-0.5-0.1-1-0.3-1.5-0.6l0,0c-0.4-0.2-0.7-0.6-0.8-1l0-0.1
		c-0.7,0.3-1.5,0.5-2.3,0.5s-1.6-0.2-2.3-0.5l0,0l0,0c-0.1,0.5-0.4,0.9-0.9,1.2l0,0c-0.4,0.2-0.8,0.4-1.3,0.5l-2.2,0.6
		c-1.2,0.4-2.2,1.3-2.6,2.5l-0.7,2h19.9L21.1,22.9z"/>
</g>
</svg>
