<?xml version="1.0" encoding="utf-8"?>
<!-- Generator: Adobe Illustrator 27.4.1, SVG Export Plug-In . SVG Version: 6.00 Build 0)  -->
<svg version="1.1" id="Layer_1" xmlns="http://www.w3.org/2000/svg" xmlns:xlink="http://www.w3.org/1999/xlink" x="0px" y="0px"
	 viewBox="0 0 39 39" style="enable-background:new 0 0 39 39;" xml:space="preserve">
<g id="Raggruppa_301" transform="translate(0 -46)">
	<g id="Raggruppa_299" transform="translate(1152 -524)">
		
			<circle id="Ellisse_49_00000087387007448617396040000013452127991959565492_" style="fill:#DCC97B;" cx="-1132.5" cy="589.5" r="19.5"/>
	</g>
</g>
<g>
	<path style="fill:#22364F;" d="M15.6,26.6h-7v2.6h6.6L15.6,26.6z"/>
	<path style="fill:#22364F;" d="M23.9,29.1h6.6v-2.6h-7L23.9,29.1z"/>
	<path style="fill:#22364F;" d="M16,24H9.9v1.3h5.9L16,24z"/>
	<path style="fill:#22364F;" d="M29.1,24H23l0.2,1.3h5.9V24z"/>
	<path style="fill:#22364F;" d="M11.1,22.7h5.1l0.2-1.3h-5.4V22.7z"/>
	<path style="fill:#22364F;" d="M27.9,22.7v-1.3h-5.4l0.2,1.3H27.9z"/>
	<path style="fill:#22364F;" d="M12.4,20.1h4.3l0.2-1.3h-4.5V20.1z"/>
	<path style="fill:#22364F;" d="M22.2,20.1h4.3v-1.3H22L22.2,20.1z"/>
	<path style="fill:#22364F;" d="M13.7,17.6h3.5l0.2-1.3h-3.7V17.6z"/>
	<path style="fill:#22364F;" d="M21.8,17.6h3.5v-1.3h-3.7L21.8,17.6z"/>
	<path style="fill:#22364F;" d="M18.9,13.7h1.3V15h-1.3V13.7z"/>
	<path style="fill:#22364F;" d="M15,15h2.6v-2.6h3.9V15H24V9.9h-9V15z"/>
	<path style="fill:#22364F;" d="M16.4,29.1h6.1l-2.3-12.8h-1.5L16.4,29.1z"/>
</g>
</svg>
