<?xml version="1.0" encoding="utf-8"?>
<!-- Generator: Adobe Illustrator 27.4.1, SVG Export Plug-In . SVG Version: 6.00 Build 0)  -->
<svg version="1.1" id="Layer_1" xmlns="http://www.w3.org/2000/svg" xmlns:xlink="http://www.w3.org/1999/xlink" x="0px" y="0px"
	 viewBox="0 0 39 39" style="enable-background:new 0 0 39 39;" xml:space="preserve">
<g>
	<g id="Raggruppa_303_00000127023458385952734230000007648709461833559708_" transform="translate(1152 -516)">
		
			<circle id="Ellisse_49_00000083069994681643776340000012114328910016791991_" style="fill:#FBDC03;" cx="-1132.5" cy="535.5" r="19.5"/>
	</g>
	<g>
		<path style="fill:#54AEF2;" d="M9.5,26.9c0.4-0.2,0.8-0.4,1.2-0.3c0.4,0,0.9,0.1,1.2,0.3c0.5,0.3,1,0.5,1.6,0.4
			c0.6,0,1.1-0.1,1.6-0.4c0.4-0.2,0.8-0.4,1.2-0.3c0.4,0,0.9,0.1,1.2,0.3c1,0.6,2.2,0.6,3.2,0c0.8-0.5,1.7-0.5,2.5,0
			c1,0.6,2.2,0.6,3.2,0c0.8-0.5,1.7-0.5,2.5,0c0.5,0.3,1,0.5,1.6,0.4c0.2,0,0.4-0.2,0.4-0.4s-0.2-0.4-0.4-0.4
			c-0.4,0-0.9-0.1-1.2-0.3c-1-0.6-2.2-0.6-3.2,0c-0.8,0.5-1.7,0.5-2.5,0c-1-0.6-2.2-0.6-3.2,0c-0.8,0.5-1.7,0.5-2.5,0
			c-0.5-0.3-1-0.5-1.6-0.4c-0.6,0-1.1,0.1-1.6,0.4c-0.4,0.2-0.8,0.4-1.2,0.3c-0.4,0-0.9-0.1-1.2-0.3c-0.5-0.3-1-0.5-1.6-0.4
			c-0.6,0-1.1,0.1-1.6,0.4"/>
		<path style="fill:#54AEF2;" d="M9.5,25.4c0.4-0.2,0.8-0.4,1.2-0.3c0.4,0,0.9,0.1,1.2,0.3c0,0,0,0,0,0c0.5,0.3,1,0.5,1.6,0.4
			c0.6,0,1.1-0.1,1.6-0.4c0.4-0.2,0.8-0.4,1.2-0.3c0.4,0,0.9,0.1,1.2,0.3c0.5,0.3,1,0.5,1.6,0.4c0.6,0,1.1-0.1,1.6-0.4
			c0.8-0.5,1.7-0.5,2.5,0c0.5,0.3,1,0.5,1.6,0.4c0.6,0,1.1-0.1,1.6-0.4c0.4-0.2,0.8-0.4,1.2-0.3c0.1,0,0.2,0,0.2,0
			c0.4,0,0.7,0.1,1,0.3c0.5,0.3,1,0.5,1.6,0.4c0.2,0,0.4-0.2,0.4-0.4c0-0.2-0.2-0.4-0.4-0.4c-0.4,0-0.9-0.1-1.2-0.3
			c-0.2-0.1-0.5-0.3-0.8-0.3c-0.2,0-0.4-0.1-0.5-0.1c-0.1,0-0.2,0-0.3,0h0c-0.6,0-1.1,0.1-1.6,0.4c-0.8,0.5-1.7,0.5-2.5,0
			c-1-0.6-2.2-0.6-3.2,0c-0.8,0.5-1.7,0.5-2.5,0c-0.5-0.3-1-0.5-1.6-0.4c-0.6,0-1.1,0.1-1.6,0.4C14.5,24.9,14,25,13.6,25
			c-0.4,0-0.9-0.1-1.2-0.3c-0.5-0.3-1-0.5-1.6-0.4c-0.1,0-0.3,0-0.4,0c0,0-0.1,0-0.1,0c0,0-0.1,0-0.1,0c0,0-0.1,0-0.1,0
			c0,0-0.1,0-0.1,0c-0.1,0-0.2,0.1-0.3,0.1"/>
		<path style="fill:#54AEF2;" d="M9.6,23.6c0.1,0,0.2-0.1,0.3-0.1c0,0,0.1,0,0.1,0c0,0,0.1,0,0.1,0c0,0,0.1,0,0.1,0c0,0,0.1,0,0.1,0
			c0.1,0,0.3,0,0.4,0c0.6,0,1.1,0.1,1.6,0.4c0.4,0.2,0.8,0.4,1.2,0.3c0.4,0,0.9-0.1,1.2-0.3c0.5-0.3,1-0.5,1.6-0.4
			c0.6,0,1.1,0.1,1.6,0.4c0.8,0.5,1.7,0.5,2.5,0c1-0.6,2.2-0.6,3.2,0c0.8,0.5,1.7,0.5,2.5,0c0.5-0.3,1-0.5,1.6-0.4h0
			c0.1,0,0.2,0,0.3,0c0.2,0,0.4,0,0.5,0.1l2.4-5.1c0.1-0.1,0-0.3,0-0.4c-0.1-0.1-0.2-0.2-0.3-0.2h-5.5c-0.1,0-0.2,0-0.2,0.1
			l-1.5,1.1H7.9"/>
		<path style="fill:#54AEF2;" d="M18.9,14.2c-0.1-0.2-0.2-0.3-0.4-0.3h-4.7v-2c0-0.2-0.2-0.4-0.4-0.4h-1.6c-0.2,0-0.4,0.2-0.4,0.4v2
			h-0.8c-0.2,0-0.4,0.2-0.4,0.4v3.9h10.2L18.9,14.2z M12.8,17.1c-0.5,0-1-0.4-1-1c0-0.5,0.4-1,1-1s1,0.4,1,1
			C13.8,16.7,13.4,17.1,12.8,17.1z M16.7,17.1c-0.5,0-1-0.4-1-1c0-0.5,0.4-1,1-1c0.5,0,1,0.4,1,1C17.7,16.7,17.3,17.1,16.7,17.1z"/>
	</g>
</g>
</svg>
