<?xml version="1.0" encoding="utf-8"?>
<!-- Generator: Adobe Illustrator 27.4.1, SVG Export Plug-In . SVG Version: 6.00 Build 0)  -->
<svg version="1.1" id="Layer_1" xmlns="http://www.w3.org/2000/svg" xmlns:xlink="http://www.w3.org/1999/xlink" x="0px" y="0px"
	 viewBox="0 0 39 39" style="enable-background:new 0 0 39 39;" xml:space="preserve">
<g id="Raggruppa_316" transform="translate(-1491 -816)">
	<g id="Raggruppa_312" transform="translate(1152 -357)">
		<circle id="Ellisse_49" style="fill:#FBDC03;" cx="358.5" cy="1192.5" r="19.5"/>
	</g>
</g>
<g id="Page-1">
	<g id="_x30_08---Coffee-and-Croissant">
		<path id="Shape" style="fill:#54AEF2;" d="M29.1,16.5C29.1,16.5,29.1,16.5,29.1,16.5c0.2,0,0.5,0.3,0.8,1.6c-0.3,0-0.8,0-1.3,0.1
			c0-0.1,0-0.3,0-0.4C28.6,17,28.6,16.7,29.1,16.5z"/>
		<path id="Shape_00000134231707809612540070000017456015376728961675_" style="fill:#54AEF2;" d="M27.7,19.4c0-0.1,0.1-0.2,0.3-0.2
			c0.1,0,0.1,0,0.2,0c0.7-0.1,1.4-0.2,2.1-0.2h0c0.1,0,0.2,0.1,0.2,0.2c0.1,0.8,0.1,1.6-0.1,2.4c-0.1,0.6-0.4,1.1-0.7,1.6
			c-0.6-1.1-1.4-2.1-2.4-2.9C27.5,19.9,27.6,19.7,27.7,19.4z"/>
		<path id="Shape_00000121999838634195844790000003824364600671017380_" style="fill:#54AEF2;" d="M23.9,21.1l2-0.8
			c2.1,0.8,3.4,3.6,3.6,4.1c-0.2,0.4-0.9,1.3-2.7,2c-0.6,0.2-1.3,0.4-1.9,0.4h-0.5c-0.3,0-0.5-0.1-0.8-0.1c0-0.1-0.1-0.2-0.1-0.4
			C23.3,25.3,22.9,22.8,23.9,21.1L23.9,21.1z"/>
		<path id="Shape_00000089567565729680378010000017335397319150648213_" style="fill:#54AEF2;" d="M22.6,25.8
			c-0.5-0.2-1-0.4-1.5-0.8c-0.6-0.5-1.1-1.1-1.5-1.7c0-0.1,0-0.2,0.1-0.3c0,0,0,0,0,0c0.5-0.5,1.1-0.9,1.7-1.3
			c0.1,0,0.1-0.1,0.2-0.1c0.1-0.1,0.2-0.1,0.3,0c0.2,0.2,0.5,0.3,0.8,0.4C22.4,23.2,22.4,24.5,22.6,25.8L22.6,25.8z"/>
		<path id="Shape_00000112591607872093849990000006356981806241693585_" style="fill:#54AEF2;" d="M19.1,20.4
			C19.1,20.3,19.2,20.3,19.1,20.4c0.5-0.2,0.7-0.1,1.2,0.6c0.1,0.1,0.2,0.2,0.3,0.3c-0.4,0.3-0.8,0.6-1.1,0.8
			C19.1,21.1,19,20.6,19.1,20.4L19.1,20.4z"/>
		<path id="Shape_00000088123256306744092750000003837436089947061894_" style="fill:#54AEF2;" d="M8.4,21.1c0-1.6,0.2-3.4,2-3.4
			c0.4,0,0.8,0.1,1.1,0.2v0.9c-0.4-0.2-0.7-0.2-1.1-0.2c-1.2,0-1.3,1.2-1.3,2.6c0,1.4,0.5,2.2,1.3,2.2c0.4,0,0.8-0.1,1.1-0.2v0.2
			c0,0.2,0,0.4,0,0.6c-0.4,0.1-0.8,0.2-1.2,0.2C9.2,24.1,8.4,22.9,8.4,21.1z"/>
		<path id="Shape_00000046331867494096053760000017127300685023196299_" style="fill:#54AEF2;" d="M12.5,24.1
			c-0.1-0.3-0.1-0.5-0.1-0.8v-6.3c0-0.2,0.2-0.4,0.4-0.4h8.7c0.2,0,0.4,0.2,0.4,0.4v3.8c-0.2,0-0.4,0-0.6,0.1
			c-0.1-0.1-0.2-0.3-0.3-0.4c-0.4-0.6-1-1.3-2-0.9c-0.3,0.1-0.4,0.3-0.5,0.5c-0.2,0.5,0,1.4,0.5,2.5c-0.2,0.3-0.2,0.7,0,1.1
			c0.4,0.7,1,1.4,1.7,2c0.1,0.1,0.1,0.1,0.2,0.2c-0.7,0.7-1.6,1-2.5,1h-2.4C14.3,26.8,12.8,25.7,12.5,24.1z"/>
		<path id="Shape_00000127026641501468644910000012699636476885812107_" style="fill:#54AEF2;" d="M30.6,28.4c0,0.4-0.6,0.8-1.2,0.8
			H11.2c-0.7,0-1.2-0.4-1.2-0.8v-0.8c0,0,0.1,0,0.1,0h20.3c0,0,0.1,0,0.1,0L30.6,28.4z"/>
		<path id="Shape_00000104685873030165035570000000686181251437989760_" style="fill:#54AEF2;" d="M16.7,14.6
			c-0.2,0-0.4-0.2-0.4-0.4c0-0.5,0.2-0.9,0.5-1.2c0.2-0.2,0.3-0.5,0.3-0.7s-0.1-0.5-0.3-0.7c-0.3-0.3-0.5-0.8-0.5-1.2
			c0-0.2,0.2-0.4,0.4-0.4s0.4,0.2,0.4,0.4c0,0.3,0.1,0.5,0.3,0.7c0.6,0.7,0.6,1.8,0,2.5c-0.2,0.2-0.3,0.5-0.3,0.7
			C17.1,14.4,16.9,14.6,16.7,14.6z"/>
		<path id="Shape_00000175316419457652829250000011849738840492751280_" style="fill:#54AEF2;" d="M14.4,14.6
			c-0.2,0-0.4-0.2-0.4-0.4c0-0.5,0.2-0.9,0.5-1.2c0.2-0.2,0.3-0.5,0.3-0.7s-0.1-0.5-0.3-0.7c-0.3-0.3-0.5-0.8-0.5-1.2
			c0-0.2,0.2-0.4,0.4-0.4c0.2,0,0.4,0.2,0.4,0.4c0,0.3,0.1,0.5,0.3,0.7c0.6,0.7,0.6,1.8,0,2.5c-0.2,0.2-0.3,0.5-0.3,0.7
			C14.7,14.4,14.6,14.6,14.4,14.6L14.4,14.6z"/>
		<path id="Shape_00000106144257764872022310000015183229469228050106_" style="fill:#54AEF2;" d="M19.1,14.6
			c-0.2,0-0.4-0.2-0.4-0.4c0-0.5,0.2-0.9,0.5-1.2c0.2-0.2,0.3-0.5,0.3-0.7s-0.1-0.5-0.3-0.7c-0.3-0.3-0.5-0.8-0.5-1.2
			c0-0.2,0.2-0.4,0.4-0.4s0.4,0.2,0.4,0.4c0,0.3,0.1,0.5,0.3,0.7c0.6,0.7,0.6,1.8,0,2.5c-0.2,0.2-0.3,0.5-0.3,0.7
			C19.5,14.4,19.3,14.6,19.1,14.6z"/>
	</g>
</g>
</svg>
