<?xml version="1.0" encoding="utf-8"?>
			<svg xmlns="http://www.w3.org/2000/svg" width="20.622" height="23.568" viewBox="0 0 20.622 23.568">
				<path id="Icon_awesome-calendar-alt" data-name="Icon awesome-calendar-alt"
					d="M0,21.359a2.21,2.21,0,0,0,2.21,2.21h16.2a2.21,2.21,0,0,0,2.21-2.21V8.838H0Zm14.73-9.022a.554.554,0,0,1,.552-.552h1.841a.554.554,0,0,1,.552.552v1.841a.554.554,0,0,1-.552.552H15.283a.554.554,0,0,1-.552-.552Zm0,5.892a.554.554,0,0,1,.552-.552h1.841a.554.554,0,0,1,.552.552V20.07a.554.554,0,0,1-.552.552H15.283a.554.554,0,0,1-.552-.552ZM8.838,12.337a.554.554,0,0,1,.552-.552h1.841a.554.554,0,0,1,.552.552v1.841a.554.554,0,0,1-.552.552H9.391a.554.554,0,0,1-.552-.552Zm0,5.892a.554.554,0,0,1,.552-.552h1.841a.554.554,0,0,1,.552.552V20.07a.554.554,0,0,1-.552.552H9.391a.554.554,0,0,1-.552-.552ZM2.946,12.337a.554.554,0,0,1,.552-.552H5.34a.554.554,0,0,1,.552.552v1.841a.554.554,0,0,1-.552.552H3.5a.554.554,0,0,1-.552-.552Zm0,5.892a.554.554,0,0,1,.552-.552H5.34a.554.554,0,0,1,.552.552V20.07a.554.554,0,0,1-.552.552H3.5a.554.554,0,0,1-.552-.552ZM18.413,2.946H16.2V.737A.739.739,0,0,0,15.467,0H13.994a.739.739,0,0,0-.737.737v2.21H7.365V.737A.739.739,0,0,0,6.629,0H5.156a.739.739,0,0,0-.737.737v2.21H2.21A2.21,2.21,0,0,0,0,5.156v2.21H20.622V5.156A2.21,2.21,0,0,0,18.413,2.946Z"
					fill="#152C48" />
			</svg>