<?xml version="1.0" encoding="utf-8"?>
<!-- Generator: Adobe Illustrator 27.4.1, SVG Export Plug-In . SVG Version: 6.00 Build 0)  -->
<svg version="1.1" id="Layer_1" xmlns="http://www.w3.org/2000/svg" xmlns:xlink="http://www.w3.org/1999/xlink" x="0px" y="0px"
	 viewBox="0 0 39 39" style="enable-background:new 0 0 39 39;" xml:space="preserve">
<g id="Raggruppa_316" transform="translate(-1491 -816)">
	<g id="Raggruppa_312" transform="translate(1152 -357)">
		<circle id="Ellisse_49" style="fill:#DCC97B;" cx="358.5" cy="1192.5" r="19.5"/>
	</g>
</g>
<g>
	<path style="fill:#22364F;" d="M7.3,25.4c0.6,0,0.9,0.2,1.2,0.4c0.4,0.3,0.9,0.6,1.8,0.6s1.4-0.3,1.8-0.6c0.4-0.2,0.6-0.4,1.2-0.4
		c0.6,0,0.9,0.2,1.2,0.4c0.4,0.3,0.9,0.6,1.8,0.6s1.4-0.3,1.8-0.6c0.4-0.2,0.6-0.4,1.2-0.4c0.6,0,0.9,0.2,1.2,0.4
		c0.4,0.3,0.9,0.6,1.8,0.6c0.9,0,1.4-0.3,1.8-0.6c0.4-0.2,0.6-0.4,1.2-0.4c0.6,0,0.9,0.2,1.2,0.4c0.4,0.3,0.9,0.6,1.8,0.6
		s1.4-0.3,1.8-0.6c0.4-0.2,0.6-0.4,1.2-0.4c0.3,0,0.5-0.2,0.5-0.5c0-0.3-0.2-0.5-0.5-0.5c-0.9,0-1.4,0.3-1.8,0.6
		c-0.2,0.1-0.3,0.2-0.5,0.3c0.1-0.1,0.1-0.1,0.1-0.2v-5.5l-4.7-0.4l-1.6,1.7l-0.8,4.6c-0.5,0-0.7-0.2-1-0.4
		c-0.4-0.3-0.9-0.6-1.8-0.6c-0.9,0-1.4,0.3-1.8,0.6c0,0-0.1,0-0.1,0.1l-2.4-3.7l-1.6-0.8l-4.4-0.4V25c0,0,0,0,0,0
		c-0.4-0.3-0.9-0.6-1.8-0.6c-0.3,0-0.5,0.2-0.5,0.5C6.8,25.2,7,25.4,7.3,25.4z"/>
	<path style="fill:#22364F;" d="M31.7,27L31.7,27L31.7,27c-0.6,0-1,0.1-1.3,0.3c-0.1,0.1-0.2,0.1-0.3,0.2c-0.1,0-0.1,0.1-0.2,0.1
		c-0.4,0.2-0.6,0.4-1.2,0.4c-0.3,0-0.5,0-0.7-0.1c-0.1,0-0.2-0.1-0.3-0.1c-0.1-0.1-0.2-0.1-0.3-0.2c-0.1,0-0.1-0.1-0.2-0.1
		c-0.1-0.1-0.2-0.1-0.3-0.2c-0.3-0.2-0.7-0.3-1.3-0.3l0,0h0c-0.6,0-1,0.1-1.3,0.3c-0.1,0.1-0.2,0.1-0.3,0.2c-0.1,0-0.1,0.1-0.2,0.1
		c-0.3,0.2-0.5,0.3-0.8,0.4c-0.1,0-0.2,0-0.4,0s-0.3,0-0.4,0c-0.2,0-0.3-0.1-0.4-0.2c-0.1,0-0.1-0.1-0.2-0.1c-0.1,0-0.1-0.1-0.2-0.1
		c-0.4-0.3-0.9-0.6-1.8-0.6h0l0,0c-0.9,0-1.4,0.3-1.8,0.6c-0.4,0.2-0.6,0.4-1.2,0.4c-0.4,0-0.6-0.1-0.8-0.2c-0.1,0-0.1-0.1-0.2-0.1
		c-0.1,0-0.1-0.1-0.2-0.1c-0.3-0.2-0.7-0.4-1.2-0.6c-0.2,0-0.4-0.1-0.6-0.1c-0.7,0-1.1,0.2-1.5,0.4c-0.5,0.3-0.8,0.6-1.5,0.6
		c0,0,0,0,0,0c-0.5,0-0.8-0.1-1.1-0.3c-0.1,0-0.1-0.1-0.2-0.1c-0.1-0.1-0.2-0.2-0.4-0.2c-0.1,0-0.1-0.1-0.2-0.1c0,0-0.1,0-0.1-0.1
		c-0.1,0-0.3-0.1-0.4-0.1c0,0,0,0-0.1,0C7.7,27,7.6,27,7.3,27l0,0h0C7.2,27,7,27.1,7,27.2c-0.1,0.1-0.2,0.2-0.2,0.4
		c0,0.3,0.2,0.5,0.5,0.5c0.7,0,1.1,0.3,1.5,0.6c0.4,0.2,0.8,0.4,1.5,0.4c0.7,0,1.1-0.2,1.5-0.4c0.1-0.1,0.2-0.1,0.3-0.2
		c0.2-0.1,0.3-0.2,0.5-0.3c0.2-0.1,0.4-0.1,0.7-0.1c0.3,0,0.5,0,0.7,0.1c0.2,0.1,0.3,0.2,0.5,0.3c0.4,0.3,0.9,0.6,1.8,0.6
		s1.4-0.3,1.8-0.6c0.2-0.1,0.3-0.2,0.5-0.3c0.2-0.1,0.4-0.1,0.7-0.1c0.6,0,0.9,0.2,1.2,0.4c0.1,0.1,0.2,0.1,0.3,0.2
		c0.4,0.2,0.8,0.4,1.5,0.4c0.9,0,1.4-0.3,1.8-0.6h0c0.2-0.1,0.3-0.2,0.5-0.3c0.2-0.1,0.4-0.1,0.7-0.1c0.1,0,0.3,0,0.4,0
		c0.3,0.1,0.6,0.2,0.8,0.4c0.4,0.3,0.9,0.6,1.8,0.6h0l0,0c0.9,0,1.4-0.3,1.8-0.6c0.4-0.2,0.6-0.4,1.2-0.4c0.3,0,0.5-0.2,0.5-0.5
		S32,27,31.7,27z"/>
	<path style="fill:#22364F;" d="M31.7,29.7c-0.9,0-1.4,0.3-1.8,0.6c-0.4,0.2-0.6,0.4-1.2,0.4c-0.6,0-0.9-0.2-1.2-0.4
		c-0.4-0.3-0.9-0.6-1.8-0.6c-0.9,0-1.4,0.3-1.8,0.6c-0.4,0.2-0.6,0.4-1.2,0.4s-0.9-0.2-1.2-0.4c-0.4-0.3-0.9-0.6-1.8-0.6
		c-0.9,0-1.4,0.3-1.8,0.6c-0.4,0.2-0.6,0.4-1.2,0.4s-0.9-0.2-1.2-0.4c-0.4-0.3-0.9-0.6-1.8-0.6c-1.7,0-1.8,1-3,1
		c-0.6,0-0.9-0.2-1.2-0.4c-0.4-0.3-0.9-0.6-1.8-0.6c-0.3,0-0.5,0.2-0.5,0.5c0,0.3,0.2,0.5,0.5,0.5c1.2,0,1.4,1,3,1
		c0.9,0,1.4-0.3,1.8-0.6c0.4-0.2,0.6-0.4,1.2-0.4c0.6,0,0.9,0.2,1.2,0.4c0.4,0.3,0.9,0.6,1.8,0.6s1.4-0.3,1.8-0.6
		c0.4-0.2,0.6-0.4,1.2-0.4c0.6,0,0.9,0.2,1.2,0.4c0.4,0.3,0.9,0.6,1.8,0.6c0.9,0,1.4-0.3,1.8-0.6c0.4-0.2,0.6-0.4,1.2-0.4
		c0.6,0,0.9,0.2,1.2,0.4c0.4,0.3,0.9,0.6,1.8,0.6s1.4-0.3,1.8-0.6c0.4-0.2,0.6-0.4,1.2-0.4c0.3,0,0.5-0.2,0.5-0.5
		C32.2,30,32,29.7,31.7,29.7z"/>
	<path style="fill:#22364F;" d="M13.9,20l1.5,0.7l1.5-3.7l2.4,0.5c0.1,0,0.2,0,0.3-0.1l1.3-1l1.1,0.1l1.9,2.7l0.6-0.6
		c0.1-0.1,0.2-0.1,0.3-0.1l4.7,0.4L27,12.1c0-0.1-0.2-0.2-0.3-0.2H25c0,0.4-0.1,0.8-0.2,1.2c-0.1,0.7-0.3,1.4-0.6,2
		c-0.1-0.7-0.2-1.4-0.1-2.1c0-0.7,0.1-1.4,0.2-2l0.1-0.7c0-0.1,0-0.1,0-0.2l-1.7-3.2c-0.2,0.3-0.5,0.7-0.8,1c-0.5,0.6-1,1.1-1.5,1.6
		c0.3-0.7,0.6-1.4,1-2c0.2-0.4,0.5-0.8,0.7-1.1l-4.2-1.2c-0.1,0-0.2,0-0.3,0c-0.1,0.1-0.1,0.1-0.2,0.2l-0.5,2.7v0.1c0,0,0,0,0,0.1
		c-0.1,0.9-0.3,1.8-0.5,2.7c0.7,0.6,1.3,1.3,1.8,2c-0.9-0.5-1.7-1-2.4-1.6c-0.1-0.1-0.1-0.2-0.1-0.3v0c0.1-0.7,0.2-1.4,0.3-2l-1,0.5
		c-0.1,0-0.1,0.1-0.2,0.2L14,12.2l0,0.1c0,0,0,0.1,0,0.1c-0.2,0.6-0.4,1.2-0.7,1.8c-0.3,0.6-0.6,1.2-1,1.7c0-0.7,0.1-1.3,0.3-1.9
		c0.1-0.3,0.2-0.6,0.2-0.8l-1.4,0.6c-0.1,0-0.2,0.1-0.2,0.2l-2,5.5l4.4,0.4C13.8,19.9,13.8,20,13.9,20z"/>
</g>
</svg>
