<?xml version="1.0" encoding="UTF-8"?>
<svg id="bold_v2" data-name="bold v2" xmlns="http://www.w3.org/2000/svg" viewBox="0 0 28.8 27">
  <circle cx="9.6" cy="15.6" r="1.8" style="fill: #004a73;"/>
  <path d="m26.74,12.55c.13-1.18.26-2.53.26-3.45C27,2.47,19.27,0,14.4,0c-3.16,0-5.44,1.69-6.21,2.36-2.4.13-6.39,1.66-6.39,6.74,0,.94.12,2.28.26,3.45-1.21.5-2.06,1.67-2.06,3.04,0,1.73,1.35,3.14,3.05,3.27,1.63,4.72,6.09,8.13,11.35,8.13s9.73-3.4,11.35-8.12c1.7-.13,3.05-1.54,3.05-3.27,0-1.38-.84-2.55-2.06-3.05Zm-2.53,5.24h0c-1.23,4.27-5.16,7.41-9.81,7.41-5.07,0-9.28-3.72-10.07-8.58l1.2-4.19c1.07-.34,3.46-1.3,4.51-3.33,1.61,1.52,5.23,3.4,13.28,3.5l1.15,4.02c-.06.4-.15.79-.26,1.18Z" style="fill: #004a73;"/>
  <circle cx="19.2" cy="15.6" r="1.8" style="fill: #004a73;"/>
  <path d="m16.77,20.05c-1.31,1.27-3.44,1.27-4.75,0-.35-.34-.93-.34-1.27.02s-.34.93.02,1.27c1,.97,2.31,1.45,3.62,1.45s2.63-.48,3.62-1.45c.36-.34.37-.92.02-1.27-.34-.35-.91-.36-1.27-.02Z" style="fill: #004a73;"/>
</svg>