<svg xmlns="http://www.w3.org/2000/svg" viewBox="0 0 100 30" style="enable-background:new 0 0 100 30" xml:space="preserve"><path d="m86.6 13.1-5.7-5.7c-.2-.3-.6-.4-.9-.4-.3 0-.7.1-.9.4l-5.7 5.7c-.5.5-.5 1.3 0 1.8.2.2.5.4.9.4h.2v4.2c0 .8.7 1.5 1.5 1.5h2.2c.2 0 .4-.2.4-.4v-3.3c0-.4.3-.7.7-.7h1.3c.4 0 .7.3.7.7v3.3c0 .2.2.4.4.4H84c.8 0 1.5-.7 1.5-1.5v-4.2h.2c.3 0 .7-.1.9-.4.5-.5.5-1.3 0-1.8zM55 27c-.3 0-.5-.1-.7-.3l-6-6c-.4-.4-.4-1 0-1.4.4-.4 1-.4 1.4 0l5.3 5.3 5.3-5.3c.4-.4 1-.4 1.4 0 .4.4.4 1 0 1.4l-6 6c-.2.2-.4.3-.7.3zM55 2.8c.3 0 .5.1.7.3l6 6c.4.4.4 1 0 1.4-.4.4-1 .4-1.4 0L55 5.2l-5.3 5.3c-.4.4-1 .4-1.4 0-.4-.4-.4-1 0-1.4l6-6c.2-.2.4-.3.7-.3zM96.5 30c-.1 0-.3 0-.3-.1l-3-3c-.2-.2-.2-.5 0-.7.2-.2.5-.2.7 0l2.7 2.7 2.7-2.7c.2-.2.5-.2.7 0 .2.2.2.5 0 .7l-3 3c-.2.1-.4.1-.5.1zM24 15c0-.3.1-.5.3-.7l6-6c.4-.4 1-.4 1.4 0 .4.4.4 1 0 1.4L26.4 15l5.3 5.3c.4.4.4 1 0 1.4-.4.4-1 .4-1.4 0l-6-6c-.2-.2-.3-.4-.3-.7zM15.8 15c0 .3-.1.5-.3.7l-6 6c-.4.4-1 .4-1.4 0-.4-.4-.4-1 0-1.4l5.3-5.3-5.3-5.3c-.4-.4-.4-1 0-1.4.4-.4 1-.4 1.4 0l6 6c.2.2.3.4.3.7z"/></svg>