<?xml version="1.0" encoding="utf-8"?>
<!-- Generator: Adobe Illustrator 27.3.1, SVG Export Plug-In . SVG Version: 6.00 Build 0)  -->
<svg version="1.1" id="Layer_1" xmlns="http://www.w3.org/2000/svg" xmlns:xlink="http://www.w3.org/1999/xlink" x="0px" y="0px"
	 viewBox="0 0 39 39" style="enable-background:new 0 0 39 39;" xml:space="preserve">
<g id="Raggruppa_4" transform="translate(-339 -1173)">
	<circle id="Ellisse_49" style="fill:#DCC97B;" cx="358.5" cy="1192.5" r="19.5"/>
	<g id="_392505_eye_preview_see_seen_view_icon" transform="translate(384 1321)">
		<g id="Raggruppa_16" transform="translate(-36 -139)">
			<g id="Raggruppa_14">
				<path id="Tracciato_13" style="fill:#44AEF2;" d="M10.9,18.1c-3.4,0-6.7-1.5-9-4c-0.3-0.3-0.3-0.8,0-1.1s0.8-0.3,1.1,0l0,0
					c2,2.2,4.9,3.5,7.9,3.5c3.9-0.1,7.5-2.2,9.4-5.6c-1.9-3.4-5.5-5.5-9.4-5.6c-4.1,0.1-7.8,2.4-9.7,6c-0.2,0.4-0.7,0.5-1.1,0.3
					c-0.4-0.2-0.5-0.7-0.3-1.1c0,0,0,0,0,0c2.2-4.1,6.4-6.7,11-6.8c4.6,0.1,8.9,2.7,11,6.8c0.1,0.2,0.1,0.5,0,0.8
					C19.8,15.4,15.5,18,10.9,18.1z"/>
			</g>
			<g id="Raggruppa_15">
				<path id="Tracciato_14" style="fill:#44AEF2;" d="M10.9,14.9c-2.2,0-4-1.8-4-4s1.8-4,4-4s4,1.8,4,4
					C14.9,13.1,13.1,14.9,10.9,14.9z M10.9,8.5c-1.3,0-2.4,1.1-2.4,2.4s1.1,2.4,2.4,2.4s2.4-1.1,2.4-2.4S12.2,8.5,10.9,8.5z"/>
			</g>
		</g>
	</g>
</g>
</svg>
