<?xml version="1.0" encoding="utf-8"?>
<!-- Generator: Adobe Illustrator 27.4.1, SVG Export Plug-In . SVG Version: 6.00 Build 0)  -->
<svg version="1.1" id="Layer_1" xmlns="http://www.w3.org/2000/svg" xmlns:xlink="http://www.w3.org/1999/xlink" x="0px" y="0px"
	 viewBox="0 0 39 39" style="enable-background:new 0 0 39 39;" xml:space="preserve">
<path id="Ellisse_49_00000013912673417656459550000006250326202138626219_" style="fill:#DCC97B;" d="M0,19.5C0,8.7,8.7,0,19.5,0
	S39,8.7,39,19.5S30.3,39,19.5,39S0,30.3,0,19.5"/>
<g>
	<path style="fill:#22364F;" d="M9.4,25.7c0,1.5,1.2,2.7,2.7,2.7s2.7-1.2,2.7-2.7c0-1.5-1.2-2.7-2.7-2.7S9.4,24.2,9.4,25.7z
		 M11,25.7c0-0.6,0.5-1.2,1.2-1.2s1.2,0.5,1.2,1.2c0,0.6-0.5,1.2-1.2,1.2S11,26.3,11,25.7z"/>
	<path style="fill:#22364F;" d="M23.8,25.7c0,1.5,1.2,2.7,2.7,2.7c1.5,0,2.7-1.2,2.7-2.7c0-1.5-1.2-2.7-2.7-2.7
		C25,23,23.8,24.2,23.8,25.7z M25.3,25.7c0-0.6,0.5-1.2,1.2-1.2c0.6,0,1.2,0.5,1.2,1.2c0,0.6-0.5,1.2-1.2,1.2
		C25.8,26.8,25.3,26.3,25.3,25.7z"/>
	<path style="fill:#22364F;" d="M8.7,25.7c0-1.9,1.5-3.5,3.5-3.5c0.4,0,0.8,0.1,1.2,0.2c1.4,0.5,2.3,1.8,2.3,3.3l7.3,0.4h0
		c0-0.1,0-0.3,0-0.4c0-1.9,1.6-3.5,3.5-3.5s3.5,1.6,3.5,3.5c0,0.1,0,0.3,0,0.4h0.8c0.2-0.4,0.3-0.8,0.4-1.2c0-0.2-0.2-0.4-0.4-0.4
		v-0.4c0-2.3-1.1-4.4-3.1-4.9v-6.7c0.4,0,0.8-0.3,0.8-0.8v-0.4c0-0.4-0.3-0.8-0.8-0.8H15.9c-0.4,0-0.7,0.3-0.7,0.7v0.6
		c0,0.4,0.3,0.7,0.7,0.7l-4,7.2l-0.5,0.1c-0.5,0.1-0.9,0.2-1.3,0.4c-1.3,0.7-2.1,2-2.2,3.5C7.9,24.5,8.2,25.2,8.7,25.7L8.7,25.7z
		 M13.2,19.6l3.9-7h9V19l-0.8-0.3v-1.5c0-0.3-0.2-0.6-0.6-0.6s-0.6,0.2-0.6,0.6l-0.2,2.7c-0.1,0.4-0.4,0.8-0.8,0.8h-1
		c-0.5,0-1,0.4-1.1,0.9c-0.1,0.3,0.2,0.6,0.5,0.7c0,0,0,0,0,0l1.3,0.2l0,0l-0.4,1.6h0h-6.1l0,0l0.2-2.8l2.3-2.3l0.5,0.5
		c0.2,0.2,0.4,0.2,0.5,0c0,0,0,0,0,0c0.2-0.2,0.2-0.4,0-0.5c0,0,0,0,0,0l-1.5-1.5c-0.2-0.2-0.4-0.2-0.6,0c-0.2,0.2-0.2,0.4,0,0.6
		l0.5,0.5l-1.7,1.7l0-0.6c0-0.2-0.2-0.4-0.4-0.4c0,0,0,0,0,0L13.2,19.6z"/>
</g>
</svg>
