<?xml version="1.0" encoding="utf-8"?>
<!-- Generator: Adobe Illustrator 27.4.1, SVG Export Plug-In . SVG Version: 6.00 Build 0)  -->
<svg version="1.1" id="Layer_1" xmlns="http://www.w3.org/2000/svg" xmlns:xlink="http://www.w3.org/1999/xlink" x="0px" y="0px"
	 viewBox="0 0 39 39" style="enable-background:new 0 0 39 39;" xml:space="preserve">
<g id="Raggruppa_301" transform="translate(0 -46)">
	<g id="Raggruppa_299" transform="translate(1152 -524)">
		
			<circle id="Ellisse_49_00000087387007448617396040000013452127991959565492_" style="fill:#DCC97B;" cx="-1132.5" cy="589.5" r="19.5"/>
	</g>
</g>
<g>
	<g>
		<g>
			<path style="fill-rule:evenodd;clip-rule:evenodd;fill:#22364F;" d="M17.1,28.3h3.2v-3.8h-3.2V28.3z M18.1,25.1h1.3
				c0.1,0,0.2,0.1,0.2,0.2c0,0.1-0.1,0.2-0.2,0.2h-1.3c-0.1,0-0.2-0.1-0.2-0.2C17.8,25.2,17.9,25.1,18.1,25.1z M18.1,26.1h1.3
				c0.1,0,0.2,0.1,0.2,0.2c0,0.1-0.1,0.2-0.2,0.2h-1.3c-0.1,0-0.2-0.1-0.2-0.2C17.8,26.2,17.9,26.1,18.1,26.1z M18.1,27.2h1.3
				c0.1,0,0.2,0.1,0.2,0.2c0,0.1-0.1,0.2-0.2,0.2h-1.3c-0.1,0-0.2-0.1-0.2-0.2C17.8,27.3,17.9,27.2,18.1,27.2z"/>
			<path style="fill-rule:evenodd;clip-rule:evenodd;fill:#22364F;" d="M26,22.5c-0.2-0.3-0.7-1-1.7-1.5c-0.4-0.2-0.9-0.4-1.2-0.4
				l-2.2,3.7v4.2c0,0.1-0.1,0.2-0.2,0.2h-3.6c-0.1,0-0.2-0.1-0.2-0.2v-4.2l-2.2-3.7c-0.3,0.1-0.7,0.2-1.1,0.4
				c-1,0.5-1.6,1.2-1.7,1.5c-0.2,0.3-0.4,0.7-0.5,1.2c-0.6,1.8-0.6,4.5-0.6,5.8h2.9v-3.8c0-0.1,0.1-0.2,0.2-0.2
				c0.1,0,0.2,0.1,0.2,0.2v3.8h10.4v-3.8c0-0.1,0.1-0.2,0.2-0.2c0.1,0,0.2,0.1,0.2,0.2v3.8h2.6c0-1.3-0.1-4.1-0.6-5.8
				C26.4,23.2,26.2,22.9,26,22.5z"/>
			<path style="fill-rule:evenodd;clip-rule:evenodd;fill:#22364F;" d="M20.4,24l2.1-3.5c-0.2,0-0.4,0-0.5,0l-3.1,2.7
				c-0.1,0.1-0.2,0.1-0.3,0l-2.9-2.7c-0.2,0-0.4,0-0.7,0L17,24L20.4,24L20.4,24z"/>
			<path style="fill-rule:evenodd;clip-rule:evenodd;fill:#22364F;" d="M20,19.6c-0.2,0.1-0.4,0.2-0.6,0.2c-0.2,0-0.4,0.1-0.8,0.1
				c-0.2,0-0.5,0-0.8-0.1c-0.1,0-0.4-0.1-0.7-0.2c0,0.1,0,0.2,0,0.3c0,0.5-0.2,1-0.3,1.2l1.8,1.7l1.7-1.5c-0.2-0.3-0.4-0.9-0.4-1.4
				C20,19.7,20,19.6,20,19.6L20,19.6z"/>
			<path style="fill-rule:evenodd;clip-rule:evenodd;fill:#22364F;" d="M22.1,13.7c-0.1-0.2-0.3-0.7-0.8-1.2
				c-0.2-0.2-0.3-0.3-0.3-0.4c0,0-0.2-0.2-0.4-0.3l0,0c0,0,0,0,0,0c-0.1,0.2-0.3,0.3-0.4,0.4c-0.4,0.3-0.8,0.2-1.1,0.2h0
				c0,0-1.1,0-2.2,0.1c-0.8,0.1-1.1,0.2-1.2,0.3c-0.2,0.1-0.5,0.3-0.6,0.6c-0.1,0.1-0.1,0.3-0.1,0.4c0,0,0,0.1,0,0.1
				c0,0.1-0.1,0.1-0.1,0.2c-0.5,0.4-0.5,1-0.4,1.2c0.1,0.5,0.5,0.9,0.9,1c0.1,0,0.1,0.1,0.2,0.2c0,0.2,0.1,0.5,0.2,0.8
				c0.3,0.8,0.8,1.3,1,1.5c0.6,0.5,1.1,0.6,1.3,0.7c0.6,0.1,1.1,0,1.3,0c0.5-0.1,0.9-0.4,1-0.5c0.1-0.1,0.4-0.3,0.7-0.6
				c0.4-0.5,0.7-1.1,0.9-1.9c0-0.1,0.1-0.2,0.2-0.2c0.4-0.1,0.8-0.7,0.8-1.3c0-0.3,0-0.7-0.5-0.9c0,0-0.1,0-0.1-0.1
				C22.2,13.9,22.2,13.8,22.1,13.7L22.1,13.7z"/>
			<path style="fill-rule:evenodd;clip-rule:evenodd;fill:#22364F;" d="M14.6,13.1c0.2-0.4,0.6-0.6,0.8-0.7c0.3-0.2,0.6-0.3,1.4-0.3
				C17.9,11.9,19,12,19,12h0c0.3,0,0.6,0,0.9-0.2c0.1-0.1,0.3-0.2,0.4-0.4c0-0.1,0.1-0.1,0.2-0.1c0,0,0,0,0.1,0
				c0.1,0,0.2,0.1,0.3,0.1l0,0c0.2,0.1,0.4,0.3,0.4,0.4c0.1,0.1,0.2,0.2,0.4,0.4c0.4,0.5,0.6,0.9,0.7,1.1c0.1-0.2,0.2-0.5,0.2-0.6
				c0-0.3,0.1-0.4,0-0.5c-0.1-0.2-0.2-0.4-0.3-0.5c-0.1-0.1-0.2-0.2-0.4-0.4c-0.2-0.1-0.2-0.2-0.3-0.2c-0.1,0-0.2-0.1-0.3-0.2
				c-0.2-0.2-0.3-0.4-0.4-0.6c-0.1-0.1-0.1-0.2-0.1-0.2c0-0.1-0.1-0.1-0.1-0.2c-0.1-0.1-0.1-0.1-0.3-0.2c-0.4-0.2-0.8-0.2-1.1-0.2
				c-0.5,0-0.9,0-1.4,0.1c-0.7,0.1-1.6,0.3-2.3,1.1c-0.4,0.4-0.6,0.9-0.7,1C14.7,11.9,14.6,12.4,14.6,13.1
				C14.6,13,14.6,13,14.6,13.1z"/>
			<path style="fill-rule:evenodd;clip-rule:evenodd;fill:#22364F;" d="M26,11V9.7c0-0.1-0.1-0.2-0.2-0.2c-0.1,0-0.2,0.1-0.2,0.2
				v9.9c0,0.1,0.1,0.2,0.2,0.2c0.1,0,0.2-0.1,0.2-0.2v-5.1h4.6L26,11z"/>
		</g>
	</g>
</g>
</svg>
