<?xml version="1.0" encoding="utf-8"?>
<!-- Generator: Adobe Illustrator 27.4.1, SVG Export Plug-In . SVG Version: 6.00 Build 0)  -->
<svg version="1.1" id="Layer_1" xmlns="http://www.w3.org/2000/svg" xmlns:xlink="http://www.w3.org/1999/xlink" x="0px" y="0px"
	 viewBox="0 0 39 39" style="enable-background:new 0 0 39 39;" xml:space="preserve">
<g id="Raggruppa_304" transform="translate(1152 -463)">
	<circle id="Ellisse_49" style="fill:#DCC97B;" cx="-1132.5" cy="482.5" r="19.5"/>
</g>
<g id="Layer_x0020_1">
	<path style="fill:#22364F;" d="M9.1,30.4c0,0,2.5-2.4,4.7-2.7c0.3-3.3,1-6,1-6c0.1-0.2,0.2-0.3,0.4-0.3c0.2,0.1,0.3,0.2,0.3,0.4
		c0,0-0.7,2.6-1,5.8c0.3,0,0.6,0.1,0.9,0.3c2.5,1.6,3.9,0.3,5.1-0.9c0.7-0.7,1.3-1.3,2.1-1.5c0.6-5.7-1.1-12.2-1.1-12.2
		c0-0.1,0-0.2,0.1-0.3c-0.7-0.2-1.3-0.4-1.8-0.4c-1.2-0.9-2.6-1.3-4.2-0.8c1.2-1.1,4-3,6,1.1c0-0.1,0.1-0.1,0.2-0.1
		c0.2-0.1,0.4,0.1,0.4,0.3c0,0,1.8,6.6,1.1,12.5c0.5,0.1,1,0.5,1.6,1.1c0.6,0.7,1.4,1.3,2.2,1.9c0.8,0.6,1.7,1.1,2.7,1.5
		c0.2,0.1,0.3,0.3,0.2,0.5C29.9,31,29.8,31,29.6,31H9.3C9.1,31,9,30.9,9,30.7C9,30.6,9,30.5,9.1,30.4z M14.5,21.9
		c-3.6-1.1-4.1,1.7-4.2,3c0.4-0.6,1-1.2,1.6-1.7C12.8,22.6,13.7,22.1,14.5,21.9z M14.8,21.6c-1.7-3.4-4.1-2-5.1-1
		c0.6-0.2,1.1-0.2,1.6-0.2c0.9,0.1,1.5,0.4,2.1,0.9C13.7,21.3,14.2,21.4,14.8,21.6z M15.1,21.4c1.2-3.7-1.5-4.3-2.9-4.4
		c1.2,0.7,1.9,1.8,2.1,3C14.5,20.5,14.8,20.9,15.1,21.4z M17,21.3c1-0.8,2.2-1.1,3.6-0.7c-1.1-1-3.4-2.4-5.1,1
		C16,21.4,16.5,21.3,17,21.3z M19.9,24.9c-0.1-1.4-0.6-4.2-4.2-3C17.1,22.4,19,23.6,19.9,24.9z M27.4,17c0-1.6-0.6-4.9-4.9-3.6
		C24.2,14,26.5,15.4,27.4,17z M28.3,12c-1.2-1.1-4-3-6,1.2c0.7-0.2,1.3-0.4,1.8-0.4c0.6-0.5,1.4-0.9,2.3-1
		C27,11.8,27.6,11.8,28.3,12z M25.4,8C23.8,8,20.5,8.7,21.9,13c0.3-0.6,0.6-1.1,1-1.5C23.1,10,23.9,8.7,25.4,8z M18.2,15.1
		c1-0.8,2.2-1.4,3.1-1.7c-4.3-1.4-4.9,2-4.9,3.6C16.8,16.3,17.5,15.7,18.2,15.1z M19.9,27.2C19.9,27.2,19.9,27.3,19.9,27.2
		c-0.3,0.4-0.6,0.7-1.1,0.9c-0.4,0.2-0.7,0.3-1.1,0.3c0.2-0.6,0.4-1.1,0.6-1.5c0.1-0.2,0.2-0.3,0.3-0.4c0.2-0.2,0.4-0.2,0.6,0
		c0,0,0,0,0,0c0.1,0.1,0.2,0.2,0.2,0.3C19.6,27,19.7,27.1,19.9,27.2z M25.6,27c0.2-0.1,0.3-0.1,0.4-0.1c0.2-0.1,0.3-0.3,0.4-0.5
		c0.1-0.1,0.1-0.2,0.2-0.3c0.3-0.2,0.5-0.1,0.8,0.1c0.1,0.1,0.2,0.4,0.4,0.6c0.3,0.7,0.7,1.8,0.9,2.5c-0.4-0.2-0.8-0.5-1.2-0.8
		C26.7,28.1,26.1,27.6,25.6,27z"/>
</g>
</svg>
