<?xml version="1.0" encoding="utf-8"?>
<!-- Generator: Adobe Illustrator 27.4.1, SVG Export Plug-In . SVG Version: 6.00 Build 0)  -->
<svg version="1.1" id="Layer_1" xmlns="http://www.w3.org/2000/svg" xmlns:xlink="http://www.w3.org/1999/xlink" x="0px" y="0px"
	 viewBox="0 0 39 39" style="enable-background:new 0 0 39 39;" xml:space="preserve">
<g id="Raggruppa_316" transform="translate(-1491 -816)">
	<g id="Raggruppa_312" transform="translate(1152 -357)">
		<circle id="Ellisse_49" style="fill:#FBDC03;" cx="358.5" cy="1192.5" r="19.5"/>
	</g>
</g>
<g>
	<g>
		<path style="fill:#54AEF2;" d="M30.3,22.1c0-0.3-0.2-0.5-0.5-0.6l0-2L30,11c0-0.4-0.5-0.6-0.8-0.2c-0.3,0.5-0.5,1.1-0.6,1.8
			l-0.9,6.9L27.6,20c0,0.2,0.2,0.5,0.4,0.5h0.5c0.1,0,0.2,0,0.3,0.1c0.1,0.1,0.1,0.2,0.1,0.3v0.6h-0.2c-0.2,0-0.3,0.1-0.4,0.2
			c-0.1,0.1-0.2,0.3-0.2,0.4l0,5.2c0,0.3,0.3,0.6,0.6,0.6l0,0l0,0h0.9c0.3,0,0.6-0.3,0.6-0.6L30.3,22.1z"/>
	</g>
	<path style="fill:#54AEF2;" d="M19.9,14.5c-2.8,0-5,2.3-5,5c0,2.8,2.2,5,5,5s5-2.2,5-5C24.9,16.7,22.7,14.5,19.9,14.5L19.9,14.5z
		 M19.9,16.1c-1.8,0-3.3,1.5-3.3,3.3c0,0.2-0.2,0.4-0.4,0.4c-0.2,0-0.4-0.2-0.4-0.4c0-2.3,1.9-4.1,4.1-4.1c0.2,0,0.4,0.2,0.4,0.4
		S20.1,16.1,19.9,16.1L19.9,16.1z M19.9,14.5c-2.8,0-5,2.3-5,5c0,2.8,2.2,5,5,5s5-2.2,5-5C24.9,16.7,22.7,14.5,19.9,14.5L19.9,14.5z
		 M19.9,16.1c-1.8,0-3.3,1.5-3.3,3.3c0,0.2-0.2,0.4-0.4,0.4c-0.2,0-0.4-0.2-0.4-0.4c0-2.3,1.9-4.1,4.1-4.1c0.2,0,0.4,0.2,0.4,0.4
		S20.1,16.1,19.9,16.1L19.9,16.1z M19.9,12.5c-3.9,0-7,3.1-7,7s3.1,7,7,7s7-3.1,7-7C26.9,15.6,23.7,12.5,19.9,12.5z M19.9,25.3
		c-3.2,0-5.8-2.6-5.8-5.8s2.6-5.8,5.8-5.8s5.8,2.6,5.8,5.8S23.1,25.3,19.9,25.3z M19.9,14.5c-2.8,0-5,2.3-5,5c0,2.8,2.2,5,5,5
		s5-2.2,5-5C24.9,16.7,22.7,14.5,19.9,14.5z M19.9,16.1c-1.8,0-3.3,1.5-3.3,3.3c0,0.2-0.2,0.4-0.4,0.4c-0.2,0-0.4-0.2-0.4-0.4
		c0-2.3,1.9-4.1,4.1-4.1c0.2,0,0.4,0.2,0.4,0.4S20.1,16.1,19.9,16.1z"/>
	<g>
		<path style="fill:#54AEF2;" d="M12.9,11l0,4.5c0,1.1-0.9,2.1-2.1,2.1s-2.1-0.9-2.1-2.1V11c0-0.2,0.2-0.4,0.4-0.4
			c0.2,0,0.4,0.2,0.4,0.4v3.8c0,0.2,0.2,0.4,0.4,0.4H10c0.2,0,0.4-0.2,0.4-0.4V11c0-0.2,0.2-0.4,0.4-0.4h0.1c0.2,0,0.4,0.2,0.4,0.4
			v3.8c0,0.2,0.2,0.4,0.4,0.4h0.1c0.2,0,0.4-0.2,0.4-0.4V11c0-0.2,0.2-0.4,0.4-0.4S12.9,10.8,12.9,11z"/>
		<path style="fill:#54AEF2;" d="M11.2,28.4h-0.8c-0.5,0-1-0.4-1-1v-4c0-0.5,0.4-1,1-1h0.8c0.5,0,1,0.4,1,1v3.9
			C12.2,27.9,11.7,28.4,11.2,28.4L11.2,28.4z"/>
		<path style="fill:#54AEF2;" d="M11.5,18.3v3.5c-0.2-0.1-0.5-0.1-0.7-0.1c-0.3,0-0.5,0-0.7,0.1v-3.5c0.2,0.1,0.5,0.1,0.7,0.1h0
			C11,18.4,11.3,18.3,11.5,18.3L11.5,18.3z"/>
	</g>
</g>
</svg>
