<?xml version="1.0" encoding="utf-8"?>
<!-- Generator: Adobe Illustrator 27.4.1, SVG Export Plug-In . SVG Version: 6.00 Build 0)  -->
<svg version="1.1" id="Layer_1" xmlns="http://www.w3.org/2000/svg" xmlns:xlink="http://www.w3.org/1999/xlink" x="0px" y="0px"
	 viewBox="0 0 39 39" style="enable-background:new 0 0 39 39;" xml:space="preserve">
<g id="Raggruppa_304" transform="translate(1152 -463)">
	<circle id="Ellisse_49" style="fill:#DCC97B;" cx="-1132.5" cy="482.5" r="19.5"/>
</g>
<g>
	<g>
		<path style="fill:#22364F;" d="M15.4,18.6l-0.5,0.2v0.5c1.5,0.4,3.2,0.6,5.2,0.8v-0.2l-0.7-0.6L15.4,18.6z"/>
		<path style="fill:#22364F;" d="M26.6,18.9l-2-2.3h-8.2l-1.9,1.3l0.1,0.2l0.7-0.3l4.6,0.8l0.7,0.6l0.8-0.6h4.2l0.8,0.6L26.6,18.9z"
			/>
		<path style="fill:#22364F;" d="M15.7,16.1l-0.8-1.3c-1.5,0.3-2.7,0.8-3.5,1.2l2.5,1.3L15.7,16.1z"/>
		<path style="fill:#22364F;" d="M24.6,15.8l0.5-0.9c-1.3-0.4-2.8-0.7-4.5-0.7c-1.8,0-3.4,0.1-4.7,0.4l0.7,1.2H24.6z"/>
		<path style="fill:#22364F;" d="M29.7,21.4c1.7-0.1,2.8-0.3,3.5-0.4l-1.2-0.5c-0.3,0-1.1,0.1-2.1,0.1
			C29.8,20.9,29.7,21.1,29.7,21.4L29.7,21.4z"/>
		<path style="fill:#22364F;" d="M30.5,18.5c-0.9-1.1-2.3-2.4-4.5-3.3l-0.6,0.9l2.1,2.4H30.5z"/>
		<path style="fill:#22364F;" d="M26.8,19.9V20c2-0.1,3.6-0.2,4.5-0.2c-0.1-0.1-0.2-0.3-0.3-0.4h-3.6L26.8,19.9z"/>
		<path style="fill:#22364F;" d="M21.7,19.3l-0.7,0.6v0.2c0.3,0,0.6,0,1,0c1.3,0,2.6,0,3.8-0.1v-0.2l-0.7-0.6H21.7z"/>
		<path style="fill:#22364F;" d="M14.9,25.6c0.4,0,0.7-0.2,0.8-0.5l-0.5-1.1c-0.6-0.2-1.3,0.2-1.3,0.7
			C13.9,25.3,14.4,25.6,14.9,25.6z"/>
		<path style="fill:#22364F;" d="M10.5,16.4c-0.4,0.2-0.6,0.4-0.8,0.6c0,0.1,0.1,0.2,0.2,0.3c0.6,0.5,1.9,1.2,4,1.8v-0.4L13.6,18
			L10.5,16.4z"/>
		<path style="fill:#22364F;" d="M30.7,24.1c-2-1.2-2-1.8-2-2c0-0.5,0-0.9,0.1-1.4c-0.9,0-1.9,0.1-3,0.1v0.9c0,1.3,1.5,2.4,2.5,3
			c0.6,0.4,1.3,0.5,2,0.5c0.4,0,0.8-0.3,0.8-0.6C31.1,24.4,30.9,24.2,30.7,24.1z"/>
		<path style="fill:#22364F;" d="M12.1,19.3c1.8,1.2,4.6,2.4,8.9,2.4c1.3,0,2.6,0,3.8-0.1v-0.8c-0.9,0-1.9,0-2.9,0
			C17.9,20.9,14.5,20.2,12.1,19.3z"/>
		<path style="fill:#22364F;" d="M16.2,26c-0.3,0.3-0.8,0.4-1.3,0.4c-1.1,0-1.9-0.7-1.9-1.6c0-0.8,0.8-1.5,1.8-1.6l-0.2-0.5
			c-0.1-0.2-0.1-0.3-0.1-0.5c0-0.3,0.1-0.6,0.3-0.8c-1.4-0.5-2.5-1.1-3.4-1.7l-0.3,0.1c-0.5,0.1-1,0.4-1.3,0.7
			c0.7,0.2,1.3,0.8,1.3,1.5c0,0.7-0.6,1.4-1.5,1.5c1,2,3.6,4.1,4.5,4.8c0.3,0.2,0.6,0.3,1,0.3h0.1c0.8,0,1.5-0.6,1.5-1.2
			c0-0.2,0-0.3-0.1-0.5L16.2,26z"/>
		<path style="fill:#22364F;" d="M11.2,15.1l-1.8-2.2c-0.1-0.1-0.2-0.2-0.3-0.3c-0.3-0.3-0.8-0.4-1.2-0.4l-0.3,0
			c-1,0-1.8,0.7-1.8,1.6c0,0.1,0,0.2,0,0.2L6,14c0.3-0.1,0.7-0.3,0.9-0.5l0.7,0.6c-0.4,0.3-0.8,0.5-1.3,0.7l-0.1,0
			c0.3,0.4,0.9,0.6,1.5,0.6c0.7,0,1.3,0.3,1.6,0.8C9.8,15.9,10.4,15.5,11.2,15.1L11.2,15.1z"/>
		<path style="fill:#22364F;" d="M10.1,22.1c0-0.4-0.3-0.7-0.8-0.8c-0.1,0.2-0.2,0.5-0.2,0.8c0,0.3,0,0.5,0.1,0.8
			C9.8,22.8,10.1,22.5,10.1,22.1z"/>
	</g>
</g>
</svg>
