<?xml version="1.0" encoding="utf-8"?>
<!-- Generator: Adobe Illustrator 27.4.1, SVG Export Plug-In . SVG Version: 6.00 Build 0)  -->
<svg version="1.1" id="Layer_1" xmlns="http://www.w3.org/2000/svg" xmlns:xlink="http://www.w3.org/1999/xlink" x="0px" y="0px"
	 viewBox="0 0 39 39" style="enable-background:new 0 0 39 39;" xml:space="preserve">
<g id="Raggruppa_301" transform="translate(0 -46)">
	<g id="Raggruppa_299" transform="translate(1152 -524)">
		
			<circle id="Ellisse_49_00000087387007448617396040000013452127991959565492_" style="fill:#DCC97B;" cx="-1132.5" cy="589.5" r="19.5"/>
	</g>
</g>
<g>
	<path style="fill:#22364F;" d="M19.2,26.8c0.1,0.1,0.2,0.2,0.3,0.3c0.1-0.1,0.2-0.2,0.3-0.3c0.2-0.2,0.3-0.3,0.5-0.4
		c0-0.1-0.1-0.3-0.2-0.4c-0.2-0.3-0.3-0.6-0.3-0.9c0-2.4-0.2-4-0.4-4.6c-0.2,0.6-0.4,2.2-0.4,4.6c0,0.3-0.1,0.6-0.3,0.9
		c0,0.1-0.1,0.3-0.2,0.4C18.9,26.5,19,26.6,19.2,26.8z"/>
	<path style="fill:#22364F;" d="M22.7,22.7c-0.2-0.4-0.5-0.8-0.8-0.8c-0.3,0-0.7,0.3-1.1,0.8v0c0.3,0.3,0.7,0.4,1.1,0.4
		C22.3,23.1,22.6,23,22.7,22.7z"/>
	<path style="fill:#22364F;" d="M23,26.9c-0.4,0-0.9-0.1-1.3-0.3c-0.1-0.1-0.2-0.2-0.2-0.3c0-0.1,0.1-0.3,0.2-0.4
		c0.1-0.1,0.3-0.1,0.4,0c0.5,0.3,1.1,0.3,1.6,0.1c0.1,0,0.2,0,0.3,0c0.1-0.3,0.2-0.6,0.3-0.9c-0.4,0.2-0.9,0.4-1.4,0.4
		c-0.4,0-0.8-0.1-1.1-0.3c-0.2-0.1-0.2-0.3-0.1-0.5c0.1-0.2,0.3-0.3,0.5-0.2c0.7,0.3,1.5,0.2,2.1-0.3c0.1-0.1,0.2-0.1,0.3-0.1
		c0.3-1.6,0.2-3.6-1.8-3.9c-1.3-0.2-2.1-0.3-2.6-0.4c0.2,0.6,0.4,1.2,0.4,1.8c0.1-0.1,0.2-0.2,0.4-0.3c0.3-0.2,0.6-0.3,1-0.4
		c0.9,0,1.4,0.9,1.5,1.3c0.1,0.2,0.1,0.3,0,0.5c-0.1,0.3-0.4,1-1.6,1c-0.4,0-0.8-0.1-1.2-0.3c0,0.4,0,0.9,0,1.5
		c0.1,0.2,0.1,0.4,0.2,0.6c0.2,0.5,0.4,0.9,0.2,1.2c-0.1,0.1-0.3,0.2-0.4,0.2c-0.1,0.1-0.2,0.2-0.3,0.3c-0.2,0.3-0.5,0.5-0.9,0.5
		c-0.3,0-0.7-0.2-0.9-0.5c-0.1-0.1-0.2-0.2-0.3-0.3c-0.2,0-0.3-0.1-0.4-0.2c-0.2-0.3,0-0.7,0.2-1.2c0.1-0.2,0.2-0.4,0.2-0.6
		c0-0.5,0-1,0-1.5c-0.4,0.2-0.8,0.3-1.2,0.3c-1.2,0-1.5-0.7-1.6-1c0-0.2,0-0.3,0-0.5c0.2-0.4,0.6-1.3,1.5-1.3c0.5,0,1,0.3,1.3,0.7
		c0-0.6,0.2-1.3,0.4-1.8c-0.5,0-1.3,0.1-2.6,0.4c-2,0.3-2,2.3-1.8,3.9c0.1,0,0.2,0,0.3,0.1c0.6,0.4,1.4,0.5,2.1,0.3
		c0.1-0.1,0.3-0.1,0.4,0c0.1,0.1,0.2,0.2,0.2,0.4c0,0.1-0.1,0.3-0.2,0.3c-0.3,0.2-0.7,0.3-1.1,0.3c-0.5,0-1-0.1-1.4-0.4
		c0.1,0.3,0.2,0.6,0.3,0.9c0.1,0,0.2,0,0.3,0c0.5,0.2,1.1,0.1,1.6-0.1c0.1-0.1,0.3-0.1,0.4,0c0.1,0.1,0.2,0.2,0.2,0.4
		c0,0.1-0.1,0.3-0.2,0.3c-0.4,0.2-0.8,0.3-1.3,0.3c-0.2,0-0.4,0-0.5-0.1c0.2,0.3,0.3,0.6,0.5,1c0,0,0.1,0,0.1-0.1
		c0.3-0.1,0.6-0.2,0.8-0.3c0.1-0.1,0.3-0.1,0.4,0c0.1,0.1,0.2,0.2,0.2,0.4c0,0.1-0.1,0.3-0.2,0.3c-0.3,0.1-0.6,0.2-0.9,0.3
		c0.9,1.3,2,2.5,3.1,2.5s2.2-1.2,3.1-2.5c-0.3-0.1-0.6-0.2-0.9-0.3c-0.1-0.1-0.2-0.2-0.2-0.3c0-0.1,0.1-0.3,0.2-0.4
		c0.1-0.1,0.3-0.1,0.4,0c0.3,0.1,0.5,0.2,0.8,0.3c0,0,0.1,0,0.1,0.1c0.2-0.3,0.4-0.6,0.5-1C23.4,26.9,23.2,26.9,23,26.9z M20.8,29.2
		c-0.4,0.1-0.9,0.2-1.3,0.2c-0.5,0-0.9-0.1-1.3-0.2c-0.2-0.1-0.3-0.3-0.2-0.5c0.1-0.2,0.3-0.3,0.5-0.2c0.3,0.1,0.7,0.2,1.1,0.2
		c0.4,0,0.7,0,1.1-0.2c0.1,0,0.3,0,0.4,0.1c0.1,0.1,0.2,0.2,0.1,0.4C21.1,29.1,21,29.2,20.8,29.2z"/>
	<path style="fill:#22364F;" d="M16.3,22.7c0.1,0.2,0.3,0.3,0.8,0.3c0.4,0,0.8-0.1,1.1-0.4c-0.4-0.5-0.8-0.8-1.1-0.8
		C16.8,21.9,16.5,22.3,16.3,22.7z"/>
	<path style="fill:#22364F;" d="M25.9,25.5v-1.9c0-0.3-0.1-0.6-0.2-0.9c-0.2-0.4-0.5-1.1-0.2-1.6c0,0,0.2-0.3,0.4-0.6l-0.3-0.4
		c-1.6-2.5-3.6-3.8-6.1-3.8s-4.5,1.2-6.1,3.8l-0.3,0.4c0.2,0.3,0.4,0.6,0.4,0.6c0.3,0.5,0,1.2-0.2,1.6c-0.1,0.3-0.2,0.6-0.2,0.9v1.9
		c-1.1,0.2-2,1.1-2,2.3c0,1.1,0.7,2.1,1.8,2.4c1.1,0.3,2.2-0.3,2.7-1.3c-0.7-1-1.2-2.2-1.7-3.3c0,0,0,0,0,0h0c0-0.1-0.1-0.2-0.1-0.3
		c-0.5-2-0.4-3.5,0.2-4.5c0.5-0.7,1.2-1.1,2-1.2c1.1-0.2,2.2-0.4,3.3-0.4c1.1,0.1,2.2,0.2,3.3,0.4c0.8,0.1,1.5,0.6,2,1.2
		c0.7,1,0.7,2.5,0.2,4.5c0,0.1,0,0.2-0.1,0.3h0c0,0,0,0,0,0c-0.4,1.2-1,2.3-1.7,3.3c0.5,1,1.6,1.6,2.7,1.3c1.1-0.3,1.9-1.3,1.8-2.4
		C27.8,26.6,27,25.7,25.9,25.5z M15.5,19.1c-0.2,0-0.4-0.2-0.4-0.4c0-0.2,0.2-0.4,0.4-0.4c0.2,0,0.4,0.2,0.4,0.4
		C15.9,18.9,15.7,19.1,15.5,19.1z M23.5,19.1c-0.2,0-0.4-0.2-0.4-0.4c0-0.2,0.2-0.4,0.4-0.4c0.2,0,0.4,0.2,0.4,0.4
		C23.9,18.9,23.7,19.1,23.5,19.1z"/>
	<path style="fill:#22364F;" d="M28.6,15.1c0,0,0.4-2-1.2-2.8c-0.8-0.4-1.2,0-2-0.8c-0.2-0.2-0.3-0.4-0.4-0.6
		c-0.3-0.6-0.3-1.1-1.2-1.4c-1.2-0.4-1.2,0.4-2,0C21.1,9.2,20.7,8,19.5,8s-1.6,1.2-2.4,1.6c-0.8,0.4-0.8-0.4-2,0
		c-1.2,0.4-0.8,1.2-1.6,2c-0.8,0.8-1.2,0.4-2,0.8c-1.6,0.8-1.2,2.8-1.2,2.8c-2,0-2.4,2-1.2,2.4c1.1,0.4,2.2,0.9,3.1,1.6
		c0.2,0.1,0.3,0.3,0.5,0.5c0.5-0.8,1.1-1.5,1.8-2.2c-1.1-1-2-2.1-2.5-3.4c-0.1-0.1,0-0.3,0.1-0.4c0.1-0.1,0.2-0.2,0.4-0.1
		c0.1,0,0.3,0.1,0.3,0.2c0.6,1.2,1.4,2.3,2.4,3.2c0,0,0,0,0,0c0.4-0.3,0.7-0.5,1.1-0.7c0,0,0,0,0,0c-0.6-1.4-1.1-2.8-1.5-4.2
		c0-0.1,0-0.3,0.1-0.4c0,0,0.1-0.1,0.2-0.1c0.1,0,0.2,0,0.3,0c0.1,0.1,0.2,0.1,0.2,0.2c0.4,1.4,0.9,2.8,1.5,4.1v0
		c0.7-0.3,1.4-0.4,2.1-0.4v-5.2c0-0.2,0.2-0.4,0.4-0.4s0.4,0.2,0.4,0.4v5.2c0.7,0,1.4,0.2,2.1,0.4v0c0.6-1.3,1.1-2.7,1.5-4.1
		c0-0.2,0.2-0.3,0.4-0.3c0,0,0.1,0,0.1,0c0.2,0.1,0.3,0.3,0.3,0.5c-0.4,1.4-0.9,2.8-1.5,4.2c0,0,0,0,0,0c0.4,0.2,0.8,0.4,1.1,0.7
		c0,0,0,0,0,0c1-0.9,1.8-2,2.4-3.2c0.1-0.2,0.3-0.3,0.5-0.2c0.2,0.1,0.3,0.3,0.2,0.5c-0.6,1.3-1.5,2.5-2.5,3.4
		c0.7,0.6,1.3,1.4,1.8,2.2c0.1-0.2,0.3-0.4,0.5-0.5c1-0.7,2-1.3,3.1-1.6C31,17.1,30.6,15.1,28.6,15.1z"/>
</g>
</svg>
