<?xml version="1.0" encoding="utf-8"?>
<!-- Generator: Adobe Illustrator 27.4.1, SVG Export Plug-In . SVG Version: 6.00 Build 0)  -->
<svg version="1.1" id="Layer_1" xmlns="http://www.w3.org/2000/svg" xmlns:xlink="http://www.w3.org/1999/xlink" x="0px" y="0px"
	 viewBox="0 0 39 39" style="enable-background:new 0 0 39 39;" xml:space="preserve">
<g id="Raggruppa_304" transform="translate(1152 -463)">
	<circle id="Ellisse_49" style="fill:#FBDC03;" cx="-1132.5" cy="482.5" r="19.5"/>
</g>
<g>
	<path style="fill:#54AEF2;" d="M14.1,22.2c0.7,1.3,1.8,2.4,3.2,2.9c-0.4-0.8-0.7-1.8-0.9-2.9H14.1z"/>
	<path style="fill:#54AEF2;" d="M14.1,16.8h2.3c0.2-1.1,0.5-2.1,0.9-2.9C15.9,14.5,14.8,15.5,14.1,16.8z"/>
	<path style="fill:#54AEF2;" d="M19.5,13.5C19.5,13.5,19.5,13.5,19.5,13.5c-0.6,0-1.4,1.3-1.8,3.3h3.5
		C20.9,14.8,20.1,13.5,19.5,13.5z"/>
	<path style="fill:#54AEF2;" d="M19.5,25.5C19.5,25.5,19.5,25.5,19.5,25.5c0.6,0,1.4-1.3,1.8-3.3h-3.5
		C18.1,24.2,18.9,25.5,19.5,25.5z"/>
	<path style="fill:#54AEF2;" d="M16.2,19.5c0-0.4,0-0.9,0.1-1.3h-2.6c-0.1,0.4-0.2,0.9-0.2,1.3s0.1,0.9,0.2,1.3h2.6
		C16.2,20.4,16.2,19.9,16.2,19.5z"/>
	<path style="fill:#54AEF2;" d="M21.7,14c0.4,0.8,0.7,1.8,0.9,2.9h2.2C24.1,15.5,23.1,14.5,21.7,14z"/>
	<path style="fill:#54AEF2;" d="M22.8,19.5c0,0.4,0,0.9-0.1,1.3h2.5c0.1-0.4,0.2-0.9,0.2-1.3s-0.1-0.9-0.2-1.3h-2.5
		C22.8,18.6,22.8,19.1,22.8,19.5z"/>
	<path style="fill:#54AEF2;" d="M30.9,19.5c0-6.2-5.1-11.4-11.4-11.4S8.1,13.3,8.1,19.5s5.1,11.4,11.4,11.4c2.1,0,4.1-0.6,5.9-1.7
		l5.5,1.7l-1.6-5.7C30.3,23.5,30.9,21.5,30.9,19.5z M19.6,26.8C19.5,26.8,19.5,26.8,19.6,26.8C19.5,26.8,19.5,26.8,19.6,26.8
		c-0.1,0-0.1,0-0.1,0c-4,0-7.3-3.3-7.3-7.3s3.3-7.3,7.3-7.3c0,0,0,0,0,0c0,0,0,0,0,0c0,0,0,0,0.1,0c4,0.1,7.2,3.3,7.2,7.3
		S23.5,26.8,19.6,26.8z"/>
	<path style="fill:#54AEF2;" d="M17.6,18.2c0,0.4-0.1,0.9-0.1,1.3s0,0.9,0.1,1.3h3.9c0-0.4,0.1-0.9,0.1-1.3s0-0.9-0.1-1.3H17.6z"/>
	<path style="fill:#54AEF2;" d="M21.7,25c1.3-0.6,2.4-1.6,3.1-2.9h-2.2C22.4,23.2,22.1,24.2,21.7,25z"/>
</g>
</svg>
