<?xml version="1.0" encoding="utf-8"?>
<!-- Generator: Adobe Illustrator 27.4.1, SVG Export Plug-In . SVG Version: 6.00 Build 0)  -->
<svg version="1.1" id="Layer_1" xmlns="http://www.w3.org/2000/svg" xmlns:xlink="http://www.w3.org/1999/xlink" x="0px" y="0px"
	 viewBox="0 0 39 39" style="enable-background:new 0 0 39 39;" xml:space="preserve">
<g id="Raggruppa_301" transform="translate(0 -46)">
	<g id="Raggruppa_299" transform="translate(1152 -524)">
		
			<circle id="Ellisse_49_00000087387007448617396040000013452127991959565492_" style="fill:#FBDC03;" cx="-1132.5" cy="589.5" r="19.5"/>
	</g>
</g>
<g>
	<path style="fill:#54AEF2;" d="M21.8,19.5c-0.5,0.4-1,1-1.4,1.9c-0.4-1.6-1-2.8-1.6-3.6c2.6-8.6-10-8.9-10-8.9s0.4,10.8,6.9,10.5
		c0-0.7-0.1-1.4-0.3-2.1c-0.1-0.4-0.2-0.9-0.3-1.3c-0.4-1.3-0.9-2.2-0.9-2.2c0.5,0.6,0.9,1.3,1.3,1.8c1.3,2,2,3.5,2.3,4.3
		c0.8,1.7,1.5,4.6,1.5,9.2c0,0.5,0.4,1,1,1c0.5,0,1-0.4,1-1c0-1.5-0.1-2.9-0.2-4c0.3-1.5,0.8-2.5,1.2-3.2c0.3-0.6,0.9-1.6,1.7-2.7
		c0.7-0.9,1.5-1.9,2.5-2.5c0,0-2,2.2-2.1,4.3c5.5,0.3,5.7-8.3,5.7-8.3S20.1,13.1,21.8,19.5z"/>
</g>
</svg>
