<?xml version="1.0" encoding="utf-8"?>
<!-- Generator: Adobe Illustrator 27.4.1, SVG Export Plug-In . SVG Version: 6.00 Build 0)  -->
<svg version="1.1" id="uuid-9fb577a9-605d-446f-afac-6d3e11607ecf"
	 xmlns="http://www.w3.org/2000/svg" xmlns:xlink="http://www.w3.org/1999/xlink" x="0px" y="0px" viewBox="0 0 39 39"
	 style="enable-background:new 0 0 39 39;" xml:space="preserve">
<style type="text/css">
	.st0{fill:#DCC97B;}
	.st1{fill:#FFFFFF;}
</style>
<path id="uuid-c57f11c1-0879-46e5-b2e7-26a3f6012080" class="st0" d="M19.5,0L19.5,0C30.3,0,39,8.7,39,19.5l0,0
	C39,30.3,30.3,39,19.5,39l0,0C8.7,39,0,30.3,0,19.5l0,0C0,8.7,8.7,0,19.5,0z"/>
<g>
	<g>
		<path class="st1" d="M28,13.5c-0.5-0.5-1.2-0.5-1.7,0l-9.4,9.4l-4.8-4.8c-0.5-0.5-1.2-0.5-1.7,0c-0.5,0.5-0.5,1.2,0,1.7l5.6,5.6
			c0.2,0.2,0.5,0.4,0.9,0.4c0.4,0,0.6-0.1,0.9-0.4L28,15.2C28.5,14.7,28.5,14,28,13.5z"/>
	</g>
</g>
</svg>
