<?xml version="1.0" encoding="UTF-8"?>
<svg id="uuid-71305f02-b8d3-42f5-aef4-f236c9bdb4d4" data-name="Capa 1" xmlns="http://www.w3.org/2000/svg" viewBox="0 0 46.84 57.56">
  <path d="m10.13,36.39c0-1.15-.64-1.72-1.92-1.72h-1.88v3.43h1.88c.65,0,1.14-.15,1.45-.45.32-.3.47-.72.47-1.26Z" style="fill: #104b71;"/>
  <path d="m22.15,35.77c-.68-.69-1.63-1.04-2.87-1.04h-1.67v7.79h1.67c1.24,0,2.2-.34,2.87-1.01.68-.68,1.01-1.63,1.01-2.85s-.34-2.19-1.01-2.88Z" style="fill: #104b71;"/>
  <path d="m33.02.71c-.46-.45-1.07-.71-1.72-.71H9.2C5.82,0,3.07,2.77,3.07,6.13v22.66h-.61c-1.36,0-2.46,1.1-2.46,2.46v14.98c0,1.36,1.1,2.46,2.46,2.46h.61v2.75c0,3.38,2.74,6.13,6.13,6.13h31.54c3.36,0,6.11-2.75,6.11-6.13V15.52c0-.65-.26-1.26-.71-1.72L33.02.71ZM6.33,44.53h-2.36v-11.79h4.34c.91,0,1.69.16,2.33.47.64.32,1.12.75,1.44,1.3.32.55.48,1.18.48,1.87,0,.63-.15,1.22-.45,1.77s-.77,1-1.4,1.33c-.64.34-1.44.51-2.41.51h-1.98v4.53Zm34.41,9.28H9.2c-1.31,0-2.37-1.06-2.37-2.37v-2.75h29.39c1.37,0,2.48-1.11,2.48-2.48v-14.96c0-1.35-1.11-2.46-2.46-2.46H6.83V6.13c0-1.3,1.05-2.37,2.37-2.37l21.7-.02v8.04c0,2.35,1.91,4.24,4.26,4.24l7.86-.02.09,35.45c0,1.32-1.08,2.37-2.37,2.37Zm-25.49-9.28v-11.79h4.12c1.24,0,2.33.24,3.27.72.94.48,1.67,1.18,2.18,2.07s.77,1.93.77,3.12-.26,2.22-.77,3.1c-.51.89-1.24,1.57-2.18,2.05-.94.48-2.03.73-3.27.73h-4.12Zm19.26-6.86v1.88h-3.77v4.98h-2.36v-11.79h7.28v1.91h-4.92v3.02h3.77Z" style="fill: #104b71;"/>
</svg>