<?xml version="1.0" encoding="utf-8"?>
<!-- Generator: Adobe Illustrator 27.4.1, SVG Export Plug-In . SVG Version: 6.00 Build 0)  -->
<svg version="1.1" id="Layer_1" xmlns="http://www.w3.org/2000/svg" xmlns:xlink="http://www.w3.org/1999/xlink" x="0px" y="0px"
	 viewBox="0 0 39 39" style="enable-background:new 0 0 39 39;" xml:space="preserve">
<g id="Raggruppa_316" transform="translate(-1491 -816)">
	<g id="Raggruppa_312" transform="translate(1152 -357)">
		<circle id="Ellisse_49" style="fill:#DCC97B;" cx="358.5" cy="1192.5" r="19.5"/>
	</g>
</g>
<g>
	<path style="fill:#22364F;" d="M18.6,16l3.3-1c0.2-0.1,0.4-0.1,0.5-0.1H27l-4.5-1.6c-0.4-0.1-0.8-0.1-1.1,0.2L18,16
		C18.2,16,18.4,16,18.6,16L18.6,16z"/>
	<path style="fill:#22364F;" d="M22.2,15.7l-2.7,0.8c0.2,0.2,0.3,0.4,0.4,0.7c0,0.1,0,0.2,0.1,0.3h6.9c0.6,0,1.2,0.2,1.8,0.5h0.3
		c0.6,0,1.1-0.5,1.1-1.1s-0.5-1.1-1.1-1.1h-6.4C22.4,15.6,22.3,15.6,22.2,15.7z"/>
	<g>
		<path style="fill:#22364F;" d="M26.8,18.1h-7c-0.2,0.5-0.5,0.9-1.1,1l-3.3,1c-0.1,0-0.8,0.4-1.3-0.2l-2.1-1.8H9.7
			c-1.6,0-2.8,1.3-2.8,2.8c0,0.9,0.4,1.7,1.1,2.2c0.7-0.1,1.5,0.1,2.1,0.5c0.2,0.1,0.6,0.1,0.8,0c1-0.6,2.5-0.6,3.5,0
			c0.2,0.1,0.6,0.1,0.8,0c1-0.6,2.5-0.6,3.5,0c0.2,0.1,0.6,0.1,0.8,0c1-0.6,2.5-0.6,3.5,0c0.2,0.1,0.6,0.1,0.8,0
			c1-0.6,2.5-0.6,3.5,0c0.1,0,0.2,0.1,0.3,0.1c1.3-0.3,2.2-1.4,2.2-2.8C29.7,19.4,28.4,18.1,26.8,18.1L26.8,18.1z"/>
		<path style="fill:#22364F;" d="M15.3,19.6l3.3-1c0.5-0.2,0.8-0.7,0.7-1.3c-0.2-0.5-0.7-0.8-1.3-0.7l-2.8,0.9l-1.7-1.1l1.5,0.5
			l1.9-0.6l1.4-2.5c0.3-0.5,0.1-1.1-0.4-1.4c-0.1,0-0.1-0.1-0.2-0.1l-0.1,1c-0.1,0.4-0.4,0.8-0.9,0.8h-1L14.8,16l-0.4-0.4
			c-1-1.1-2.8-1.2-3.9-0.1c-0.6,0.5-0.9,1.3-0.9,2c0.2,0,0.9,0,1.8,0l1.1,0.7h0l2.1,1.3C14.8,19.6,15.1,19.7,15.3,19.6L15.3,19.6z"
			/>
	</g>
	<ellipse style="fill:#22364F;" cx="10.3" cy="12.1" rx="2.2" ry="2.2"/>
	<path style="fill:#22364F;" d="M32.3,28c-0.2-0.3-0.5-0.3-0.8-0.2c-0.4,0.3-1.1,0.3-1.6,0c-0.8-0.5-2-0.5-2.7,0
		c-0.4,0.3-1.1,0.3-1.6,0c-0.8-0.5-2-0.5-2.7,0c-0.4,0.3-1.1,0.3-1.6,0c-0.8-0.5-2-0.5-2.7,0c-0.4,0.3-1.1,0.3-1.6,0
		c-0.8-0.5-2-0.5-2.7,0c-0.4,0.3-1.1,0.3-1.6,0c-0.8-0.5-2-0.5-2.7,0c-0.3,0.2-0.3,0.5-0.2,0.8c0.2,0.3,0.5,0.3,0.8,0.2
		c0.4-0.3,1.1-0.3,1.6,0c0.8,0.5,2,0.5,2.7,0c0.4-0.3,1.1-0.3,1.6,0c0.8,0.5,2,0.5,2.7,0c0.4-0.3,1.1-0.3,1.6,0
		c0.4,0.2,0.9,0.4,1.4,0.4s1-0.1,1.4-0.4c0.4-0.3,1.1-0.3,1.6,0c0.8,0.5,2,0.5,2.7,0c0.4-0.3,1.1-0.3,1.6,0c0.8,0.5,2,0.5,2.7,0
		C32.4,28.6,32.5,28.3,32.3,28z"/>
	<path style="fill:#22364F;" d="M16,25.2c0.4-0.3,1.1-0.3,1.6,0c0.8,0.5,2,0.5,2.7,0c0.4-0.3,1.1-0.3,1.6,0c0.8,0.5,2,0.5,2.7,0
		c0.4-0.3,1.1-0.3,1.6,0c0.4,0.2,0.9,0.4,1.4,0.4c0.5,0,1-0.1,1.4-0.4c0.3-0.2,0.3-0.5,0.2-0.8c-0.2-0.3-0.5-0.3-0.8-0.2
		c-0.4,0.3-1.1,0.3-1.6,0c-0.8-0.5-2-0.5-2.7,0c-0.4,0.3-1.1,0.3-1.6,0c-0.8-0.5-2-0.5-2.7,0c-0.4,0.3-1.1,0.3-1.6,0
		c-0.8-0.5-2-0.5-2.7,0c-0.4,0.3-1.1,0.3-1.6,0c-0.8-0.5-2-0.5-2.7,0c-0.4,0.3-1.1,0.3-1.6,0c-0.8-0.5-2-0.5-2.7,0
		c-0.3,0.2-0.3,0.5-0.2,0.8c0.2,0.3,0.5,0.3,0.8,0.2c0.4-0.3,1.1-0.3,1.6,0c0.8,0.5,2,0.5,2.7,0c0.4-0.3,1.1-0.3,1.6,0
		C14,25.7,15.2,25.7,16,25.2z"/>
	<path style="fill:#22364F;" d="M15.6,13.3c0,0.1,0.1,0.2,0.3,0.2h1c0.1,0,0.3-0.1,0.3-0.2l0.3-2.5c0-0.2-0.1-0.3-0.3-0.3h-1.7
		c-0.2,0-0.3,0.2-0.3,0.3L15.6,13.3z"/>
</g>
</svg>
