<?xml version="1.0" encoding="utf-8"?>
<!-- Generator: Adobe Illustrator 27.4.1, SVG Export Plug-In . SVG Version: 6.00 Build 0)  -->
<svg version="1.1" id="Layer_1" xmlns="http://www.w3.org/2000/svg" xmlns:xlink="http://www.w3.org/1999/xlink" x="0px" y="0px"
	 viewBox="0 0 39 39" style="enable-background:new 0 0 39 39;" xml:space="preserve">
<g id="Raggruppa_317">
	<g id="Raggruppa_305" transform="translate(1152 -410)">
		<circle id="Ellisse_49" style="fill:#FBDC03;" cx="-1132.5" cy="429.5" r="19.5"/>
	</g>
</g>
<g>
	<circle style="fill:#54AEF2;" cx="14" cy="25.9" r="1.4"/>
	<path style="fill:#54AEF2;" d="M10.9,15.9V20c0,0.8,0.6,1.4,1.4,1.4h3.9c0.1,0,0.1,0,0.1-0.1c1.8-1.8,4.6-1.8,6.4,0
		c0,0,0.1,0.1,0.1,0.1h0.5v-6.9H12.2C11.5,14.5,10.9,15.1,10.9,15.9z M15.7,17.3c1,0,1.7,0.8,1.7,1.7c0,1-0.8,1.7-1.7,1.7
		S14,19.9,14,19C14,18,14.7,17.3,15.7,17.3z"/>
	<path style="fill:#54AEF2;" d="M23.3,10.3h3.5c0.2,0,0.3-0.2,0.3-0.3c0-0.2-0.2-0.3-0.3-0.3h-3.5C23.1,9.6,23,9.8,23,10
		C23,10.2,23.1,10.3,23.3,10.3z"/>
	<path style="fill:#54AEF2;" d="M15.7,20c0.6,0,1-0.5,1-1s-0.5-1-1-1s-1,0.5-1,1S15.1,20,15.7,20z"/>
	<path style="fill:#54AEF2;" d="M28.1,20v-4.1c0-0.8-0.6-1.4-1.4-1.4v6.9C27.5,21.4,28.1,20.8,28.1,20z"/>
	<path style="fill:#54AEF2;" d="M19.5,21.4c0.8,0,1.5,0.3,2,0.8c0.4,0.4,0.8,0.5,1.3,0.5h0.5v-0.7h-0.5c-0.2,0-0.5-0.1-0.6-0.3
		c-1.5-1.5-3.9-1.5-5.4,0c-0.2,0.2-0.4,0.3-0.6,0.3h-3.9c-1.1,0-2.1-0.9-2.1-2.1v-4.1c0-1.1,0.9-2.1,2.1-2.1h11.1v-0.7H11.9
		c-1.3,0-2.4,1.1-2.4,2.4v4.8c0,1.3,1.1,2.4,2.4,2.4h4.3c0.5,0,1-0.2,1.3-0.5C18,21.7,18.7,21.4,19.5,21.4z"/>
	<path style="fill:#54AEF2;" d="M24,25.9c0,1-0.8,1.7-1.7,1.7s-1.7-0.8-1.7-1.7h-2.1c0,2.1,1.7,3.8,3.8,3.8s3.8-1.7,3.8-3.8V11H24
		V25.9z"/>
	<path style="fill:#54AEF2;" d="M21.2,25.6v0.3c0,0.2,0.1,0.4,0.2,0.6c0.5-0.3,0.7-0.9,0.4-1.4c-0.2-0.3-0.5-0.5-0.9-0.5h-2.8
		c-0.6,0-1,0.5-1,1c0,0.5,0.3,0.9,0.7,1c0-0.2,0-0.4-0.1-0.6v-0.3c0-0.2,0.2-0.3,0.3-0.3h2.8C21.1,25.2,21.2,25.4,21.2,25.6z"/>
	<path style="fill:#54AEF2;" d="M27.1,13.1h-0.3v0.7c1.1,0,2.1,0.9,2.1,2.1V20c0,1.1-0.9,2.1-2.1,2.1v0.7h0.3c1.3,0,2.4-1.1,2.4-2.4
		v-4.8C29.5,14.2,28.4,13.1,27.1,13.1z"/>
	<circle style="fill:#54AEF2;" cx="14.7" cy="10.3" r="1"/>
</g>
</svg>
