<?xml version="1.0" encoding="utf-8"?>
<!-- Generator: Adobe Illustrator 27.4.1, SVG Export Plug-In . SVG Version: 6.00 Build 0)  -->
<svg version="1.1" id="uuid-b2c0b91c-36bc-4451-8c16-9c1f9c9ae3e0"
	 xmlns="http://www.w3.org/2000/svg" xmlns:xlink="http://www.w3.org/1999/xlink" x="0px" y="0px" viewBox="0 0 23.6 23.6"
	 style="enable-background:new 0 0 23.6 23.6;" xml:space="preserve">
<style type="text/css">
	.st0{fill:none;stroke:#000000;stroke-linecap:round;stroke-linejoin:round;}
</style>
<g id="uuid-f4f3ae3f-ce7c-4a7f-a3fb-f1a20ed7d38c">
	<path id="uuid-8f851655-2d33-402c-8000-74c22f7c58be" class="st0" d="M8.4,5h6.9c1.9,0,3.4,1.5,3.4,3.4l0,0v6.9
		c0,1.9-1.5,3.4-3.4,3.4H8.4c-1.9,0-3.4-1.5-3.4-3.4l0,0V8.4C5,6.5,6.5,5,8.4,5L8.4,5z"/>
	<path id="uuid-d1c0c0fe-0497-41a8-8dda-de440c6f18a2" class="st0" d="M14.5,11.4c0.2,1.5-0.8,2.9-2.3,3.1s-2.9-0.8-3.1-2.3
		s0.8-2.9,2.3-3.1c0.3,0,0.5,0,0.8,0C13.4,9.2,14.4,10.2,14.5,11.4L14.5,11.4z"/>
	<path id="uuid-bda89f66-575e-4540-b26b-bd1c37eec75d" class="st0" d="M15.6,8L15.6,8"/>
</g>
<path d="M11.8,23.6C5.3,23.6,0,18.3,0,11.8C0,5.3,5.3,0,11.8,0c6.5,0,11.8,5.3,11.8,11.8C23.6,18.3,18.3,23.6,11.8,23.6z M11.8,1
	C5.8,1,1,5.8,1,11.8s4.9,10.8,10.8,10.8s10.8-4.9,10.8-10.8S17.8,1,11.8,1z"/>
</svg>
