<?xml version="1.0" encoding="utf-8"?>
<!-- Generator: Adobe Illustrator 27.4.1, SVG Export Plug-In . SVG Version: 6.00 Build 0)  -->
<svg version="1.1" id="uuid-ef4fb930-17b3-49c3-96e0-7bd8ba40327d"
	 xmlns="http://www.w3.org/2000/svg" xmlns:xlink="http://www.w3.org/1999/xlink" x="0px" y="0px" viewBox="0 0 23.6 23.6"
	 style="enable-background:new 0 0 23.6 23.6;" xml:space="preserve">
<style type="text/css">
	.st0{fill:none;stroke:#000000;stroke-linecap:round;stroke-linejoin:round;}
</style>
<g id="uuid-36e36489-b92d-4ef3-9504-e0e6779bfd6b">
	<path id="uuid-46f95c20-c4b5-44bd-9850-63ffa1f9545b" class="st0" d="M19.5,7.9c-0.2-0.7-0.7-1.3-1.4-1.5c-1.3-0.3-6.3-0.3-6.3-0.3
		s-5,0-6.3,0.3C4.8,6.7,4.3,7.3,4.1,8c-0.2,1.3-0.3,2.6-0.3,3.9c0,1.3,0.1,2.6,0.3,3.9c0.2,0.7,0.7,1.2,1.4,1.4
		c1.3,0.3,6.3,0.3,6.3,0.3s5,0,6.3-0.3c0.7-0.2,1.2-0.8,1.4-1.5c0.2-1.3,0.3-2.5,0.3-3.8C19.8,10.5,19.7,9.2,19.5,7.9L19.5,7.9
		L19.5,7.9z"/>
	<path id="uuid-fa8b4a2c-99f1-40b2-b40e-394e550d3d92" class="st0" d="M10.2,14.2l4.2-2.4l-4.2-2.4V14.2z"/>
</g>
<path d="M11.8,23.6C5.3,23.6,0,18.3,0,11.8C0,5.3,5.3,0,11.8,0c6.5,0,11.8,5.3,11.8,11.8C23.6,18.3,18.3,23.6,11.8,23.6z M11.8,1
	C5.8,1,1,5.8,1,11.8s4.9,10.8,10.8,10.8s10.8-4.9,10.8-10.8S17.8,1,11.8,1z"/>
</svg>
