<?xml version="1.0" encoding="utf-8"?>
<!-- Generator: Adobe Illustrator 27.4.1, SVG Export Plug-In . SVG Version: 6.00 Build 0)  -->
<svg version="1.1" id="uuid-92c87ae6-b2ee-40aa-b0cb-8cd993fcc33a"
	 xmlns="http://www.w3.org/2000/svg" xmlns:xlink="http://www.w3.org/1999/xlink" x="0px" y="0px" viewBox="0 0 23.6 23.6"
	 style="enable-background:new 0 0 23.6 23.6;" xml:space="preserve">
<style type="text/css">
	.st0{fill:none;stroke:#000000;stroke-linecap:round;stroke-linejoin:round;}
</style>
<path id="uuid-3f1dd182-0872-473f-92fd-bedc8cd0c215" class="st0" d="M15.7,4.7h-2.1c-2,0-3.6,1.6-3.6,3.6l0,0v2.1H7.9v2.8H10v5.7
	h2.8v-5.7H15l0.7-2.8h-2.8V8.3c0-0.4,0.3-0.7,0.7-0.7h2.1V4.7z"/>
<path d="M11.8,23.6C5.3,23.6,0,18.3,0,11.8C0,5.3,5.3,0,11.8,0c6.5,0,11.8,5.3,11.8,11.8C23.6,18.3,18.3,23.6,11.8,23.6z M11.8,1
	C5.8,1,1,5.8,1,11.8s4.9,10.8,10.8,10.8s10.8-4.9,10.8-10.8S17.8,1,11.8,1z"/>
</svg>
