<?xml version="1.0" encoding="utf-8"?>
<!-- Generator: Adobe Illustrator 27.4.1, SVG Export Plug-In . SVG Version: 6.00 Build 0)  -->
<svg version="1.1" id="Layer_1" xmlns="http://www.w3.org/2000/svg" xmlns:xlink="http://www.w3.org/1999/xlink" x="0px" y="0px"
	 viewBox="0 0 39 39" style="enable-background:new 0 0 39 39;" xml:space="preserve">
<g id="Raggruppa_316" transform="translate(-1491 -816)">
	<g id="Raggruppa_312" transform="translate(1152 -357)">
		<circle id="Ellisse_49" style="fill:#DCC97B;" cx="358.5" cy="1192.5" r="19.5"/>
	</g>
</g>
<g>
	<path style="fill:#22364F;" d="M8.3,24.2c-0.5-0.8-1.3-2.6-0.3-4.8c0.5-1.1,1.2-1.7,1.9-2.1c0.2-0.8,0.7-1.5,1.4-2.1
		c0.9-0.7,1.9-1.1,2.9-1.1c0.8,0,1.5,0.2,1.9,0.5c1.1-0.6,2.3-1,3.5-1.3C14.2,11.9,8.7,14.8,6.7,20c-0.5,1.3-0.8,2.4-0.9,3.3
		c-0.2,1.4,0.9,2.8,2.3,2.8h0.4C8.8,26,9,25.8,9.2,25.6c0.1-0.1,0.1-0.1,0.2-0.2C8.9,24.9,8.4,24.3,8.3,24.2z"/>
	<path style="fill:#22364F;" d="M31.8,19.2c-1-1.5-2.5-2.7-4.1-3.6c-0.9-0.5-1.8-0.8-2.8-1.1c-1.1-0.3-2.2-0.5-3.3-0.4
		c-0.5,0-1,0-1.5,0.1C18,14.6,16,15.6,14.3,17c-2,1.8-3.3,4.1-3.3,6.2c0,0.1,0,0.2,0,0.3c0,0.9-0.3,1.8-0.9,2.5h21.1
		c0.7,0,1.4-0.4,1.6-1.1c0.2-0.6,0.3-1.2,0.3-1.8C33.2,21.7,32.6,20.3,31.8,19.2z M15.9,19.6c0-0.3,0.3-0.6,0.6-0.6s0.6,0.3,0.6,0.6
		s-0.3,0.6-0.6,0.6S15.9,19.9,15.9,19.6z M16.8,23.8c-0.3,0-0.6-0.3-0.6-0.6c0-0.3,0.3-0.6,0.6-0.6s0.6,0.3,0.6,0.6
		C17.4,23.6,17.1,23.8,16.8,23.8z M19,17.6c0-0.3,0.3-0.6,0.6-0.6c0.3,0,0.6,0.3,0.6,0.6c0,0.3-0.3,0.6-0.6,0.6
		C19.2,18.2,19,17.9,19,17.6z M20.1,21.7c-0.3,0-0.6-0.3-0.6-0.6s0.3-0.6,0.6-0.6s0.6,0.3,0.6,0.6S20.4,21.7,20.1,21.7z M23.3,18.5
		c0-0.3,0.3-0.6,0.6-0.6c0.3,0,0.6,0.3,0.6,0.6c0,0.3-0.3,0.6-0.6,0.6C23.5,19.1,23.3,18.9,23.3,18.5z M24,23.2
		c-0.3,0-0.6-0.3-0.6-0.6c0-0.3,0.3-0.6,0.6-0.6s0.6,0.3,0.6,0.6C24.6,22.9,24.3,23.2,24,23.2z M28.1,24.1c-0.3,0-0.6-0.3-0.6-0.6
		s0.3-0.6,0.6-0.6s0.6,0.3,0.6,0.6S28.4,24.1,28.1,24.1z"/>
	<path style="fill:#22364F;" d="M10.4,18.1c-0.5,0.3-1,0.8-1.4,1.6c-1.1,2.3,0.2,4.1,0.9,4.7c0.1-0.3,0.1-0.5,0.1-0.8v-0.1
		c0-0.1,0-0.2,0-0.3c0-1.3,0.5-2.7,1.3-4.1C10.9,18.8,10.6,18.4,10.4,18.1z"/>
	<path style="fill:#22364F;" d="M11.9,16c-0.4,0.3-0.7,0.7-0.9,1.1c0.1,0.2,0.3,0.7,0.8,1.2c0.5-0.7,1.1-1.4,1.8-2
		c0.4-0.4,0.9-0.8,1.4-1.1C14.3,15,13.2,15,11.9,16z"/>
</g>
</svg>
