<?xml version="1.0" encoding="utf-8"?>
<!-- Generator: Adobe Illustrator 27.4.1, SVG Export Plug-In . SVG Version: 6.00 Build 0)  -->
<svg version="1.1" id="Layer_1" xmlns="http://www.w3.org/2000/svg" xmlns:xlink="http://www.w3.org/1999/xlink" x="0px" y="0px"
	 viewBox="0 0 39 39" style="enable-background:new 0 0 39 39;" xml:space="preserve">
<g id="Raggruppa_303" transform="translate(1152 -516)">
	<circle id="Ellisse_49" style="fill:#FBDC03;" cx="-1132.5" cy="535.5" r="19.5"/>
</g>
<path style="fill:#54AEF2;" d="M32,18.1l-1.3-2.9c-0.5-1-1.5-1.7-2.6-1.7H9.4c-1.4,0-2.5,1.1-2.5,2.5v6.2c0,0.8,0.6,1.4,1.4,1.4h2
	c0.2,1,1.1,1.7,2.1,1.7s1.9-0.7,2.1-1.7h10.2c0.2,1,1.1,1.7,2.1,1.7c1,0,1.9-0.7,2.1-1.7H31c0.5,0,1-0.3,1.1-0.8c0-0.1,0-0.2,0-0.3
	V19C32.1,18.7,32.1,18.4,32,18.1z M9,18.7c-0.2,0-0.4-0.2-0.4-0.4v-3.4c0-0.2,0.2-0.4,0.4-0.4h3c0.2,0,0.4,0.2,0.4,0.4v3.4
	c0,0.2-0.2,0.4-0.4,0.4H9z M12.3,24.6c-0.7,0-1.3-0.6-1.3-1.3c0-0.7,0.6-1.3,1.3-1.3c0.7,0,1.3,0.6,1.3,1.3
	C13.6,24,13,24.6,12.3,24.6z M17,18.2c0,0.2-0.2,0.4-0.4,0.4h-3c-0.2,0-0.4-0.2-0.4-0.4v-3.4c0-0.2,0.2-0.4,0.4-0.4h3
	c0.2,0,0.4,0.2,0.4,0.4V18.2z M21.6,18.2c0,0.2-0.2,0.4-0.4,0.4h-3c-0.2,0-0.4-0.2-0.4-0.4v-3.4c0-0.2,0.2-0.4,0.4-0.4h3
	c0.2,0,0.4,0.2,0.4,0.4V18.2z M22.9,18.7c-0.2,0-0.4-0.2-0.4-0.4v-3.4c0-0.2,0.2-0.4,0.4-0.4h3c0.2,0,0.4,0.2,0.4,0.4v3.4
	c0,0.2-0.2,0.4-0.4,0.4H22.9z M26.7,24.6c-0.7,0-1.3-0.6-1.3-1.3c0-0.7,0.6-1.3,1.3-1.3c0.7,0,1.3,0.6,1.3,1.3
	C27.9,24,27.4,24.6,26.7,24.6z M27.5,18.7c-0.2,0-0.4-0.2-0.4-0.4v-3.4c0-0.2,0.2-0.4,0.4-0.4H28c0.8,0,1.5,0.5,1.8,1.2l1.3,2.9
	c0.1,0.1,0.1,0.3,0.1,0.5L27.5,18.7z"/>
</svg>
