<?xml version="1.0" encoding="UTF-8"?>
<svg id="uuid-969c2950-ec34-4b00-83f7-eacb7dfdc4e8" data-name="uuid-6205bb79-fe6e-4266-a7af-62f949c73bd5" xmlns="http://www.w3.org/2000/svg" viewBox="0 0 18.28 18.49">
  <path d="m18.07,17.03l-5.99-5.99c2.27-2.93,1.77-7.18-1.14-9.5C9.57.36,7.87-.16,6.05.04c-1.91.2-3.49,1.1-4.59,2.59C-.86,5.66-.36,9.96,2.57,12.2c1.28.96,2.77,1.49,4.18,1.49h.19c1.33,0,2.79-.54,3.93-1.45l5.99,5.99c.13.13.38.26.56.26s.43-.14.56-.26c.4-.4.36-.94.1-1.21h-.01Zm-6.18-10.21c0,1.33-.52,2.63-1.47,3.67-.96.96-2.23,1.47-3.67,1.47-1.33,0-2.63-.52-3.67-1.47-1.05-1.05-1.56-2.25-1.56-3.67,0-1.28.48-2.39,1.56-3.57l.1-.1c.93-.93,2.23-1.47,3.58-1.47s2.63.52,3.67,1.47c.96.96,1.47,2.23,1.47,3.67h0Z" style="fill: #fff;"/>
  <path d="m9.2,6h-1.68v-1.79c0-.45-.37-.82-.82-.82s-.82.37-.82.82v1.79h-1.68c-.45,0-.82.37-.82.82s.37.82.82.82h1.68v1.8c0,.45.37.82.82.82s.82-.37.82-.82v-1.8h1.68c.45,0,.82-.37.82-.82s-.37-.82-.82-.82Z" style="fill: #fff;"/>
</svg>